<svg xmlns="http://www.w3.org/2000/svg" xmlns:xlink="http://www.w3.org/1999/xlink" width="1378pt" height="314pt" viewBox="0 0 1378 314"><defs><symbol overflow="visible" id="a"><path d="M2.973 0v-3.234L.03-7.637h1.23l1.505 2.305c.277.43.535.86.777 1.289.227-.398.504-.848.832-1.348l1.48-2.246h1.176L3.984-3.234V0zm0 0"/></symbol><symbol overflow="visible" id="b"><path d="M4.488-1.781l.969.12c-.156.571-.437 1.009-.848 1.317-.418.313-.945.465-1.582.469-.812-.004-1.453-.25-1.925-.746-.477-.5-.715-1.2-.711-2.098-.004-.93.234-1.648.718-2.164.477-.512 1.098-.77 1.864-.773.734.004 1.34.254 1.812.758.465.503.7 1.21.703 2.12-.004.06-.004.145-.004.25H1.36c.032.614.204 1.079.516 1.4.309.323.691.483 1.156.483.34 0 .633-.09.88-.27.241-.179.437-.468.577-.866zM1.41-3.297H4.5c-.043-.465-.164-.812-.355-1.047-.301-.36-.688-.543-1.16-.543-.434 0-.794.145-1.087.434-.296.289-.46.676-.488 1.156zm0 0"/></symbol><symbol overflow="visible" id="c"><path d="M.328-1.652l.926-.145c.05.375.195.66.433.856.239.199.57.296 1 .296.426 0 .747-.085.958-.261.207-.176.308-.383.312-.621a.595.595 0 0 0-.273-.5c-.133-.082-.454-.188-.961-.317-.692-.172-1.168-.32-1.43-.449-.27-.125-.473-.3-.605-.527a1.32 1.32 0 0 1-.204-.743c-.004-.242.051-.472.168-.683.11-.211.266-.383.461-.524.145-.105.344-.199.598-.273.25-.074.52-.11.809-.113a3.41 3.41 0 0 1 1.144.187c.324.13.566.297.727.508.152.215.261.5.324.856l-.918.125a1.014 1.014 0 0 0-.363-.665c-.2-.16-.48-.242-.844-.242-.434 0-.742.074-.926.215-.184.149-.277.313-.273.5a.474.474 0 0 0 .113.328.776.776 0 0 0 .36.25c.093.04.366.117.827.239.66.18 1.125.324 1.387.437.262.113.465.277.617.492.149.215.227.485.227.801 0 .316-.094.61-.274.883-.187.277-.449.492-.789.64a2.952 2.952 0 0 1-1.168.227C1.97.121 1.421-.023 1.047-.32.668-.617.43-1.062.328-1.652zm0 0"/></symbol><symbol overflow="visible" id="d"><path d="M.813 0v-7.637h1.035L5.859-1.64v-5.996h.97V0H5.792L1.781-6v6zm0 0"/></symbol><symbol overflow="visible" id="e"><path d="M.355-2.766c-.003-1.023.282-1.78.852-2.277.477-.406 1.055-.61 1.742-.613.758.004 1.38.254 1.864.75.476.5.718 1.187.722 2.062-.004.715-.11 1.274-.32 1.68-.215.41-.527.726-.934.953-.41.223-.855.332-1.332.336C2.168.121 1.543-.121 1.07-.617.59-1.11.352-1.828.355-2.766zm.961 0c-.004.711.153 1.243.465 1.594.309.352.696.527 1.168.527.461 0 .848-.175 1.16-.53.305-.352.461-.891.465-1.622-.004-.68-.16-1.2-.469-1.555a1.514 1.514 0 0 0-1.156-.527c-.472.004-.86.18-1.168.527-.312.352-.468.88-.465 1.586zm0 0"/></symbol><symbol overflow="visible" id="f"><path d="M4.68 0v-11.895H.43v-2.421h11.375v2.421H7.57V0zm0 0"/></symbol><symbol overflow="visible" id="g"><path d="M4.172-14.316v5.261c.883-1.03 1.937-1.55 3.172-1.55.625 0 1.195.117 1.707.351.504.234.886.535 1.148.899.254.367.43.77.528 1.21.09.446.136 1.133.14 2.06V0H8.125v-5.477c-.004-1.085-.055-1.777-.156-2.07a1.39 1.39 0 0 0-.551-.7c-.266-.171-.598-.26-.992-.26-.457 0-.864.112-1.223.331-.36.227-.621.559-.785 1.004-.164.445-.246 1.106-.246 1.977V0H1.426v-14.316zm0 0"/></symbol><symbol overflow="visible" id="h"><path d="M7.441-3.3l2.735.456c-.356 1.008-.91 1.77-1.664 2.293C7.75-.027 6.8.234 5.664.234 3.86.234 2.524-.352 1.66-1.53.973-2.473.633-3.668.633-5.11c0-1.72.449-3.063 1.347-4.036.899-.972 2.036-1.46 3.41-1.46 1.54 0 2.755.511 3.653 1.53.89 1.02 1.316 2.579 1.277 4.68H3.445c.02.817.239 1.454.664 1.903.422.453.954.676 1.586.676.426 0 .785-.118 1.082-.352.293-.234.516-.61.664-1.133zm.157-2.774c-.02-.793-.223-1.399-.614-1.813a1.89 1.89 0 0 0-1.43-.62c-.6 0-1.097.218-1.484.655-.394.438-.586 1.032-.574 1.778zm0 0"/></symbol><symbol overflow="visible" id="j"><path d="M1.438-11.777v-2.54H4.18v2.54zM1.438 0v-10.371H4.18V0zm0 0"/></symbol><symbol overflow="visible" id="k"><path d="M.469-2.96l2.754-.419c.117.535.351.942.71 1.215.356.281.86.418 1.505.414.71.004 1.242-.125 1.601-.39a.885.885 0 0 0 .363-.731.757.757 0 0 0-.195-.52c-.14-.129-.45-.25-.918-.359-2.219-.488-3.621-.934-4.21-1.336C1.257-5.648.847-6.426.851-7.422c-.004-.894.351-1.648 1.062-2.266.707-.609 1.809-.917 3.3-.917 1.419 0 2.473.234 3.165.695.687.465 1.16 1.148 1.426 2.05l-2.586.477c-.114-.402-.324-.71-.633-.926-.309-.214-.75-.32-1.32-.324-.727.004-1.246.106-1.555.305-.211.144-.313.328-.313.555 0 .199.09.367.274.5.246.187 1.101.441 2.562.77 1.461.331 2.48.741 3.063 1.222.57.492.855 1.172.86 2.039-.005.953-.4 1.77-1.192 2.453C8.168-.105 6.992.234 5.438.234c-1.415 0-2.532-.285-3.352-.859C1.262-1.195.723-1.973.469-2.961zm0 0"/></symbol><symbol overflow="visible" id="l"><path d="M10.867 0H8.125v-5.293c-.004-1.117-.063-1.844-.176-2.172a1.615 1.615 0 0 0-.57-.77 1.66 1.66 0 0 0-.953-.273c-.48 0-.906.133-1.281.39-.38.266-.641.61-.778 1.036-.14.434-.207 1.23-.207 2.387V0H1.414v-10.371h2.55v1.523c.903-1.172 2.044-1.757 3.419-1.757.601 0 1.152.109 1.66.328.5.218.879.496 1.137.832.254.34.433.726.535 1.152.098.434.148 1.047.152 1.848zm0 0"/></symbol><symbol overflow="visible" id="m"><path d="M.234-10.371h1.524v-.781c0-.868.09-1.52.277-1.953.18-.426.524-.778 1.024-1.051.5-.27 1.128-.403 1.894-.406a7.907 7.907 0 0 1 2.293.351l-.371 1.914a5.856 5.856 0 0 0-1.258-.156c-.402.004-.687.098-.86.281-.171.188-.257.543-.257 1.07v.73h2.055v2.161H4.5V0H1.758v-8.21H.234zm0 0"/></symbol><symbol overflow="visible" id="n"><path d="M8.262 0v-1.555A3.962 3.962 0 0 1 6.773-.242c-.617.32-1.27.476-1.949.476C4.125.234 3.5.082 2.95-.223a2.672 2.672 0 0 1-1.203-1.289c-.25-.554-.375-1.32-.371-2.297v-6.562h2.746v4.766c-.004 1.46.047 2.355.149 2.683.097.332.28.594.554.781.266.196.606.29 1.016.286.465.003.883-.125 1.258-.383.367-.258.62-.575.761-.957.133-.38.204-1.313.207-2.801v-4.375h2.746V0zm0 0"/></symbol><symbol overflow="visible" id="o"><path d="M10.477-7.305l-2.704.489c-.093-.536-.3-.942-.62-1.22-.325-.269-.743-.405-1.255-.41-.683.005-1.23.239-1.636.708-.41.472-.614 1.261-.61 2.367-.004 1.234.203 2.105.618 2.61.41.511.964.765 1.668.761.515.004.94-.145 1.277-.445.328-.293.566-.805.707-1.532l2.695.461c-.281 1.239-.82 2.176-1.613 2.805-.797.633-1.86.945-3.191.945-1.52 0-2.731-.476-3.633-1.433C1.277-2.156.824-3.48.828-5.176c-.004-1.707.45-3.039 1.36-3.996.902-.953 2.128-1.433 3.671-1.433 1.262 0 2.266.273 3.012.816.746.543 1.281 1.371 1.606 2.484zm0 0"/></symbol><symbol overflow="visible" id="p"><path d="M6.191-10.371v2.187H4.316v4.18c-.003.852.012 1.344.051 1.48a.54.54 0 0 0 .246.348.753.753 0 0 0 .465.137c.254 0 .621-.086 1.102-.266l.234 2.13c-.637.273-1.36.41-2.164.41-.5 0-.945-.083-1.34-.25-.402-.165-.695-.38-.875-.645-.187-.262-.316-.617-.387-1.067-.062-.316-.09-.96-.085-1.937v-4.52H.304v-2.187h1.257v-2.059l2.754-1.601v3.66zm0 0"/></symbol><symbol overflow="visible" id="q"><path d="M.8-5.332c-.003-.91.22-1.79.673-2.645a4.586 4.586 0 0 1 1.91-1.953c.82-.449 1.742-.675 2.758-.675 1.57 0 2.855.511 3.859 1.53 1 1.02 1.5 2.305 1.504 3.86-.004 1.57-.508 2.871-1.52 3.902C8.973-.28 7.7.234 6.164.234A6.017 6.017 0 0 1 3.441-.41 4.373 4.373 0 0 1 1.473-2.3C1.02-3.13.797-4.14.8-5.333zm2.813.144c-.004 1.036.239 1.825.73 2.368.485.55 1.09.824 1.81.82.714.004 1.312-.27 1.8-.82.48-.543.723-1.34.727-2.383C8.676-6.22 8.434-7 7.953-7.547c-.488-.547-1.086-.82-1.8-.82-.72 0-1.325.273-1.81.82-.491.547-.734 1.336-.73 2.36zm0 0"/></symbol><symbol overflow="visible" id="r"><path d="M11.492 0H8.977l-1-2.602H3.398L2.453 0H0l4.46-11.453h2.446zM7.234-4.531l-1.578-4.25-1.547 4.25zm0 0"/></symbol><symbol overflow="visible" id="s"><path d="M3.25 0H1.055v-8.297h2.039v1.18c.347-.555.66-.922.941-1.102.277-.176.594-.265.95-.265.495 0 .976.14 1.445.414l-.68 1.914c-.375-.239-.719-.36-1.031-.36-.313 0-.57.086-.782.254-.214.172-.382.477-.503.918-.125.446-.188 1.375-.184 2.782zm0 0"/></symbol><symbol overflow="visible" id="t"><path d="M.64-4.266a4.42 4.42 0 0 1 .54-2.117 3.685 3.685 0 0 1 1.527-1.562c.656-.36 1.39-.54 2.207-.54 1.254 0 2.281.41 3.086 1.223.797.82 1.2 1.848 1.203 3.09-.004 1.258-.41 2.3-1.215 3.121C7.176-.223 6.156.187 4.93.187a4.794 4.794 0 0 1-2.176-.515A3.51 3.51 0 0 1 1.18-1.84C.816-2.504.637-3.312.64-4.266zm2.25.118c-.003.824.192 1.457.587 1.89.386.442.87.66 1.445.656.57.004 1.05-.214 1.441-.656.387-.433.578-1.07.582-1.906-.004-.809-.195-1.434-.582-1.875a1.883 1.883 0 0 0-1.441-.656 1.88 1.88 0 0 0-1.445.656c-.395.441-.59 1.07-.586 1.89zm0 0"/></symbol><symbol overflow="visible" id="u"><path d="M2.695 0L.07-8.297h2.133l1.555 5.438 1.43-5.438h2.117l1.383 5.438 1.585-5.438h2.165L9.773 0H7.664l-1.43-5.336L4.828 0zm0 0"/></symbol><symbol overflow="visible" id="w"><path d="M.188-8.297h1.218v-.625c0-.695.074-1.215.223-1.562.148-.34.422-.621.82-.84.399-.215.903-.324 1.512-.324.625 0 1.234.093 1.836.28L5.5-9.835a4.443 4.443 0 0 0-1.008-.125c-.32 0-.547.074-.683.223-.141.148-.211.433-.207.855v.586h1.64v1.727h-1.64V0H1.406v-6.57H.188zm0 0"/></symbol><symbol overflow="visible" id="x"><path d="M6.61 0v-1.242A3.18 3.18 0 0 1 5.417-.195a3.332 3.332 0 0 1-1.559.383 3.026 3.026 0 0 1-1.5-.368 2.12 2.12 0 0 1-.96-1.03c-.2-.442-.297-1.056-.297-1.837v-5.25h2.195v3.813c-.004 1.171.035 1.886.121 2.144.078.266.227.473.441.625.211.156.48.235.813.23.371.005.707-.1 1.008-.308.293-.203.496-.457.61-.766.105-.3.16-1.046.163-2.238v-3.5h2.195V0zm0 0"/></symbol><symbol overflow="visible" id="y"><path d="M8.695 0H6.5v-4.234c-.004-.895-.05-1.473-.14-1.739a1.302 1.302 0 0 0-.458-.613 1.364 1.364 0 0 0-.761-.219 1.79 1.79 0 0 0-1.024.313c-.304.21-.512.488-.62.828-.114.348-.169.984-.169 1.906V0H1.133v-8.297h2.039v1.219c.719-.938 1.633-1.406 2.734-1.406.485 0 .926.09 1.328.261.399.18.704.403.91.668.204.274.344.578.43.922.078.344.121.836.121 1.477zm0 0"/></symbol><symbol overflow="visible" id="z"><path d="M8.383-5.844l-2.164.39c-.078-.429-.242-.753-.496-.976-.262-.215-.598-.324-1.004-.328-.551.004-.985.192-1.309.567-.328.378-.492 1.011-.488 1.894-.004.988.16 1.684.496 2.086.328.41.773.613 1.332.61.414.003.754-.118 1.023-.356.262-.234.45-.64.563-1.223l2.156.368C8.266-1.82 7.836-1.07 7.203-.57c-.64.507-1.492.757-2.555.757C3.43.188 2.465-.195 1.746-.96 1.023-1.727.66-2.785.664-4.14.66-5.508 1.024-6.574 1.75-7.34c.723-.762 1.703-1.144 2.938-1.144 1.007 0 1.808.218 2.41.652.593.437 1.023 1.102 1.285 1.988zm0 0"/></symbol><symbol overflow="visible" id="A"><path d="M4.953-8.297v1.75h-1.5v3.344c-.004.68.012 1.074.043 1.183a.465.465 0 0 0 .195.278.559.559 0 0 0 .372.11c.199.003.496-.067.882-.212L5.133-.14c-.512.22-1.09.329-1.735.329-.398 0-.757-.067-1.07-.2-.32-.133-.55-.304-.7-.515-.148-.211-.253-.496-.308-.856-.05-.254-.074-.77-.07-1.547v-3.617H.242v-1.75H1.25v-1.648l2.203-1.282v2.93zm0 0"/></symbol><symbol overflow="visible" id="B"><path d="M1.148-9.422v-2.031h2.196v2.031zm0 9.422v-8.297h2.196V0zm0 0"/></symbol><symbol overflow="visible" id="ab"><path d="M1.188 0v-11.453h2.25l4.687 7.648v-7.648h2.148V0h-2.32L3.336-7.469V0zm0 0"/></symbol><symbol overflow="visible" id="ac"><path d="M.984-8.297h2.024v1.133c.719-.879 1.582-1.32 2.586-1.32.527 0 .988.109 1.383.328.386.219.707.55.96.992.364-.441.758-.774 1.18-.992a2.89 2.89 0 0 1 1.352-.328c.605 0 1.12.125 1.547.37.418.25.734.614.945 1.09.148.356.223.93.226 1.72V0h-2.195v-4.742c0-.82-.078-1.352-.226-1.594-.207-.309-.52-.465-.938-.469a1.53 1.53 0 0 0-.867.282 1.558 1.558 0 0 0-.586.824c-.125.363-.184.933-.18 1.715V0H6v-4.547c0-.805-.04-1.324-.117-1.562-.078-.23-.2-.407-.363-.524-.165-.113-.387-.168-.668-.172-.34.004-.645.094-.915.274a1.472 1.472 0 0 0-.582.789c-.12.344-.18.914-.175 1.71V0H.984zm0 0"/></symbol><symbol overflow="visible" id="ad"><path d="M2.79-5.766L.796-6.125c.223-.797.605-1.39 1.156-1.781.543-.383 1.356-.578 2.438-.578.976 0 1.707.117 2.187.347.477.235.813.528 1.012.883.191.36.289 1.016.293 1.965l-.024 2.562c-.004.735.032 1.27.106 1.614.066.347.2.718.394 1.113H6.188a6.741 6.741 0 0 1-.211-.648c-.04-.13-.067-.215-.079-.258-.378.367-.78.64-1.203.82-.43.184-.883.273-1.367.273-.855 0-1.531-.23-2.02-.695C.813-.968.567-1.555.57-2.266A2.32 2.32 0 0 1 .906-3.52c.223-.363.535-.644.942-.843.398-.192.98-.364 1.746-.512 1.023-.191 1.734-.371 2.133-.54v-.218c-.004-.418-.106-.719-.313-.902-.21-.176-.605-.266-1.18-.27-.394.004-.699.078-.914.23-.222.157-.398.427-.53.81zm2.937 1.782c-.286.093-.73.207-1.336.336-.614.132-1.012.261-1.196.382-.289.207-.43.465-.43.774 0 .312.114.578.344.797.227.226.52.336.875.336.395 0 .77-.13 1.133-.391a1.39 1.39 0 0 0 .524-.727c.054-.183.082-.539.086-1.07zm0 0"/></symbol><symbol overflow="visible" id="ae"><path d="M1.148 0v-11.453h2.196V0zm0 0"/></symbol><symbol overflow="visible" id="C"><path d="M1.004-5.527l.285-1.387h.91l.23-1.106L4.57-9.309l-.5 2.395h1.137l-.285 1.387H3.777L3.172-2.63c-.113.527-.168.828-.164.899-.004.148.043.257.137.335.09.079.253.118.496.118.078 0 .285-.012.617-.043L3.965.066a5.201 5.201 0 0 1-.988.098c-.664 0-1.145-.125-1.442-.379-.3-.254-.453-.61-.45-1.062-.003-.211.08-.7.243-1.47l.578-2.78zm0 0"/></symbol><symbol overflow="visible" id="D"><path d="M2.43 0H.559l2-9.543h1.867L3.71-6.145c.418-.328.812-.566 1.18-.714a3.142 3.142 0 0 1 1.171-.22c.56 0 1 .165 1.329.485.32.324.484.742.488 1.262-.004.281-.066.71-.184 1.289L6.848 0H4.98l.868-4.121c.09-.445.132-.734.136-.86a.763.763 0 0 0-.214-.55c-.145-.14-.34-.211-.586-.211-.317 0-.618.11-.899.324-.379.29-.664.64-.855 1.055-.11.234-.25.773-.43 1.62zm0 0"/></symbol><symbol overflow="visible" id="E"><path d="M2.527-9.543h1.868l-.352 1.691H2.176zM1.98-6.914h1.868L2.402 0H.535zm0 0"/></symbol><symbol overflow="visible" id="F"><path d="M.293-1.934l1.809-.285c.16.383.359.653.597.809.239.16.567.238.98.238.423 0 .762-.094 1.02-.285.18-.129.27-.29.27-.477a.503.503 0 0 0-.137-.34c-.098-.093-.355-.21-.777-.351-1.13-.371-1.828-.664-2.094-.883a1.592 1.592 0 0 1-.633-1.328c-.004-.543.2-1.016.613-1.414.563-.55 1.407-.828 2.532-.828.886 0 1.562.164 2.02.488.452.328.737.77.862 1.324l-1.722.297a1.105 1.105 0 0 0-.446-.566 1.912 1.912 0 0 0-1-.254c-.394 0-.675.066-.843.195-.176.133-.262.282-.258.45-.004.175.082.32.262.43.101.073.453.194 1.047.366.91.266 1.52.528 1.828.782.433.363.648.796.652 1.3-.004.66-.277 1.23-.828 1.707-.55.485-1.328.723-2.328.723-1.004 0-1.778-.184-2.317-.55C.855-.755.488-1.27.293-1.935zm0 0"/></symbol><symbol overflow="visible" id="H"><path d="M1.074-5.313v-1.68h6.672v1.68zm0 2.891v-1.687h6.672v1.687zm0 0"/></symbol><symbol overflow="visible" id="I"><path d="M3.117 0v-7.93H.285v-1.613h7.586v1.613H5.047V0zm0 0"/></symbol><symbol overflow="visible" id="J"><path d="M2.781-9.543v3.508c.586-.688 1.29-1.031 2.114-1.035.418.004.8.082 1.14.234.336.16.59.36.766.602.168.242.285.511.351.804.059.297.09.754.094 1.375V0H5.418v-3.652c-.004-.72-.04-1.18-.106-1.38a.985.985 0 0 0-.37-.464 1.176 1.176 0 0 0-.657-.176c-.308 0-.578.074-.816.223a1.279 1.279 0 0 0-.524.668c-.113.297-.168.738-.164 1.316V0H.95v-9.543zm0 0"/></symbol><symbol overflow="visible" id="K"><path d="M4.96-2.2l1.825.305c-.234.672-.605 1.18-1.113 1.528-.508.347-1.14.52-1.895.523C2.57.152 1.68-.238 1.105-1.024.648-1.647.422-2.44.422-3.405c0-1.14.297-2.04.898-2.692.594-.644 1.352-.968 2.274-.972 1.023.004 1.836.343 2.433 1.02.594.683.88 1.722.856 3.12H2.297c.012.543.156.965.441 1.266.282.305.637.457 1.059.453.285.004.523-.074.723-.234.19-.153.34-.403.44-.754zm.106-1.85c-.015-.524-.152-.927-.41-1.208a1.272 1.272 0 0 0-.953-.414c-.398 0-.73.149-.988.438-.266.296-.39.691-.383 1.183zm0 0"/></symbol><symbol overflow="visible" id="M"><path d="M.957-7.852v-1.691h1.828v1.691zM.957 0v-6.914h1.828V0zm0 0"/></symbol><symbol overflow="visible" id="N"><path d="M.82-6.914h1.688v.945c.601-.73 1.316-1.097 2.152-1.101.438.004.824.093 1.152.273.325.184.59.461.801.828.301-.367.63-.644.985-.828.347-.18.722-.27 1.125-.273.504.004.933.105 1.289.308.347.207.61.512.789.91.12.297.183.774.187 1.43V0H9.16v-3.953c-.004-.684-.066-1.125-.187-1.328-.172-.258-.43-.39-.782-.39-.257 0-.5.077-.726.234a1.29 1.29 0 0 0-.488.687c-.102.305-.153.781-.149 1.43V0H5v-3.79c-.004-.667-.035-1.1-.098-1.3a.887.887 0 0 0-.304-.437c-.137-.094-.32-.145-.555-.145-.281 0-.535.078-.762.23-.226.153-.39.372-.488.657-.098.289-.145.765-.145 1.426V0H.82zm0 0"/></symbol><symbol overflow="visible" id="O"><path d="M7.297 0h-1.7v-1.016a2.736 2.736 0 0 1-1 .883 2.651 2.651 0 0 1-1.16.29C2.641.151 1.962-.165 1.396-.806.828-1.44.543-2.335.547-3.485.543-4.651.82-5.542 1.37-6.155c.55-.606 1.246-.91 2.094-.914.765.004 1.433.324 2.004.965v-3.438h1.828zM2.414-3.605c0 .742.102 1.273.309 1.601.293.477.703.715 1.234.715.418 0 .777-.176 1.074-.535.293-.356.442-.89.446-1.606-.004-.789-.149-1.363-.43-1.715a1.365 1.365 0 0 0-1.102-.527c-.437 0-.8.176-1.093.52-.293.347-.438.863-.438 1.547zm0 0"/></symbol><symbol overflow="visible" id="P"><path d="M2.324-4.805l-1.66-.3c.184-.665.508-1.16.965-1.48.453-.321 1.129-.481 2.031-.485.813.004 1.418.101 1.82.289.399.195.68.441.844.738.16.3.242.844.246 1.637l-.02 2.133c0 .609.028 1.058.087 1.347.058.29.168.598.328.926H5.156a7.443 7.443 0 0 1-.176-.54c-.03-.108-.054-.179-.066-.214A3.398 3.398 0 0 1 3.91-.07c-.36.148-.738.222-1.137.226C2.06.152 1.5-.039 1.09-.422.68-.809.473-1.297.477-1.887c-.004-.39.09-.738.277-1.043a1.81 1.81 0 0 1 .785-.703c.332-.164.816-.304 1.457-.43.852-.156 1.445-.308 1.777-.449v-.183c-.003-.348-.09-.598-.261-.75-.176-.149-.504-.227-.985-.227-.328 0-.582.067-.761.195-.184.13-.332.352-.442.672zm2.45 1.485c-.239.082-.61.175-1.114.28-.512.11-.844.216-.996.317-.242.172-.363.387-.36.645a.876.876 0 0 0 .286.668.98.98 0 0 0 .73.277c.328.004.645-.105.946-.324.218-.164.363-.367.433-.605.047-.157.07-.454.074-.895zm0 0"/></symbol><symbol overflow="visible" id="Q"><path d="M4.129-6.914v1.457h-1.25v2.789c-.004.566.008.895.035.984.02.098.074.176.16.235.082.062.188.09.313.09.168 0 .41-.059.734-.176l.156 1.418c-.425.18-.91.27-1.445.273a2.371 2.371 0 0 1-.894-.164c-.266-.11-.461-.254-.583-.43-.125-.175-.207-.414-.253-.714-.04-.211-.059-.641-.059-1.29v-3.015h-.84v-1.457h.84V-8.29l1.836-1.066v2.44zm0 0"/></symbol><symbol overflow="visible" id="R"><path d="M6.984-4.871l-1.8.328c-.067-.36-.207-.633-.418-.816-.22-.18-.496-.27-.832-.274-.461.004-.825.16-1.094.473-.274.316-.41.844-.406 1.578-.004.824.136 1.402.414 1.738.273.34.64.508 1.109.508.344 0 .629-.098.856-.293.218-.195.375-.535.468-1.02l1.797.305C6.891-1.516 6.531-.89 6-.473c-.531.418-1.242.625-2.125.63-1.016-.005-1.82-.321-2.422-.958C.852-1.437.551-2.32.555-3.449.55-4.59.852-5.48 1.457-6.117c.602-.633 1.418-.95 2.45-.953.84.004 1.507.183 2.007.543.492.363.852.918 1.07 1.656zm0 0"/></symbol><symbol overflow="visible" id="S"><path d="M.535-3.555a3.681 3.681 0 0 1 .45-1.761 3.077 3.077 0 0 1 1.269-1.305c.547-.297 1.16-.445 1.84-.45 1.043.005 1.898.344 2.57 1.02.664.684 1 1.543 1.004 2.574-.004 1.051-.34 1.918-1.012 2.602C5.98-.187 5.13.152 4.11.156a4.06 4.06 0 0 1-1.816-.43A2.894 2.894 0 0 1 .984-1.53c-.3-.551-.453-1.227-.449-2.024zm1.875.098c-.004.687.16 1.215.488 1.574a1.54 1.54 0 0 0 1.204.547c.476 0 .875-.18 1.199-.547.324-.36.488-.89.488-1.586 0-.676-.164-1.195-.488-1.562a1.544 1.544 0 0 0-1.2-.547c-.476 0-.878.183-1.203.547-.328.367-.492.89-.488 1.574zm0 0"/></symbol><symbol overflow="visible" id="T"><path d="M7.246 0H5.418v-3.527c-.004-.746-.043-1.227-.117-1.45a1.106 1.106 0 0 0-.383-.511 1.106 1.106 0 0 0-.633-.184c-.32 0-.605.09-.855.262-.254.18-.426.41-.516.691-.098.29-.144.817-.14 1.586V0H.944v-6.914h1.7v1.016c.597-.778 1.359-1.168 2.277-1.172.402.004.77.078 1.105.218.332.149.586.332.758.559.172.227.29.484.36.766.062.289.097.699.101 1.23zm0 0"/></symbol><symbol overflow="visible" id="U"><path d="M.078 0L2.57-3.563.184-6.913h2.23l1.227 1.902L4.93-6.914h2.148L4.734-3.641 7.293 0H5.047L3.64-2.14 2.219 0zm0 0"/></symbol><symbol overflow="visible" id="V"><path d="M.313-1.973l1.835-.28c.075.358.23.628.473.812.234.187.57.28 1.004.277.473.004.828-.082 1.07-.262a.58.58 0 0 0 .239-.488.488.488 0 0 0-.13-.344c-.093-.086-.3-.168-.613-.242-1.476-.324-2.41-.621-2.804-.89-.551-.372-.825-.891-.82-1.56-.004-.597.23-1.1.706-1.507.47-.406 1.204-.61 2.204-.613.941.004 1.644.16 2.109.465.457.312.773.765.95 1.363l-1.723.32a1.131 1.131 0 0 0-.422-.617c-.211-.14-.504-.215-.883-.215-.485 0-.828.066-1.035.2-.141.097-.211.222-.207.37-.004.133.058.243.183.332.164.125.73.297 1.707.516.969.223 1.653.496 2.043.813.38.328.567.78.57 1.363-.003.637-.265 1.18-.792 1.633-.532.453-1.317.68-2.352.683-.941-.004-1.688-.191-2.234-.57A2.578 2.578 0 0 1 .312-1.973zm0 0"/></symbol><symbol overflow="visible" id="W"><path d="M.156-6.914h1.016v-.52c0-.582.058-1.015.183-1.304.122-.282.352-.516.684-.7.332-.175.75-.265 1.262-.269a5.414 5.414 0 0 1 1.531.234l-.25 1.278a4.017 4.017 0 0 0-.84-.106c-.265.004-.457.067-.57.188-.117.125-.172.363-.172.71v.489h1.367v1.437H3V0H1.172v-5.477H.156zm0 0"/></symbol><symbol overflow="visible" id="X"><path d="M5.508 0v-1.035a2.664 2.664 0 0 1-.996.875 2.85 2.85 0 0 1-1.297.316 2.585 2.585 0 0 1-1.25-.304 1.796 1.796 0 0 1-.8-.86c-.169-.367-.25-.875-.247-1.531v-4.375h1.828v3.176c-.004.976.031 1.574.102 1.789a.934.934 0 0 0 .367.52c.176.128.402.195.68.19.308.005.59-.081.84-.253.245-.168.413-.38.507-.637.09-.25.137-.875.137-1.867v-2.918h1.828V0zm0 0"/></symbol><symbol overflow="visible" id="Y"><path d="M6.984-4.871l-1.8.328c-.067-.36-.207-.633-.418-.816-.22-.18-.496-.27-.832-.274-.461.004-.825.16-1.094.473-.274.316-.41.844-.406 1.578-.004.824.136 1.402.414 1.738.273.34.64.508 1.109.508.344 0 .629-.098.856-.293.218-.195.375-.535.468-1.02l1.797.305C6.891-1.516 6.531-.89 6-.473c-.531.418-1.242.625-2.125.63-1.016-.005-1.82-.321-2.422-.958C.852-1.437.551-2.32.555-3.449.55-4.59.852-5.48 1.457-6.117c.602-.633 1.418-.95 2.45-.953.84.004 1.507.183 2.007.543.492.363.852.918 1.07 1.656zm0 0"/></symbol><symbol overflow="visible" id="Z"><path d="M2.246 0L.06-6.914h1.777l1.297 4.531 1.191-4.531h1.762l1.152 4.531 1.324-4.531h1.801L8.145 0H6.387L5.195-4.445 4.023 0zm0 0"/></symbol><symbol overflow="visible" id="aa"><path d="M2.707 0H.879v-6.914h1.7v.984c.288-.465.55-.77.784-.918.23-.144.492-.218.79-.222a2.42 2.42 0 0 1 1.206.343l-.566 1.598c-.313-.195-.602-.297-.86-.3a1.052 1.052 0 0 0-.652.21c-.18.145-.32.399-.422.766-.101.371-.152 1.144-.152 2.316zm0 0"/></symbol><symbol overflow="visible" id="af"><path d="M.879 0v-9.543h1.828v3.438c.563-.641 1.23-.961 2.008-.965.84.004 1.535.308 2.086.914.55.613.828 1.488.828 2.629 0 1.18-.281 2.09-.844 2.726-.562.637-1.246.953-2.047.957A2.604 2.604 0 0 1 3.57-.14a2.705 2.705 0 0 1-.992-.875V0zm1.816-3.605c0 .718.114 1.246.34 1.585.313.489.73.73 1.262.73.398 0 .742-.17 1.031-.515.281-.343.426-.886.426-1.633 0-.785-.145-1.355-.43-1.707a1.363 1.363 0 0 0-1.097-.527c-.446 0-.809.172-1.098.512-.29.344-.434.863-.434 1.555zm0 0"/></symbol><symbol overflow="visible" id="ag"><path d="M3.992 2.805H2.734A12.414 12.414 0 0 1 1.214-.32C.865-1.398.692-2.445.696-3.457A9.704 9.704 0 0 1 1.34-7.02c.37-.968.844-1.863 1.422-2.687h1.25c-.598 1.316-1.008 2.434-1.23 3.355a12.479 12.479 0 0 0-.333 2.934c0 .715.063 1.441.196 2.188.128.75.312 1.457.546 2.128.149.438.414 1.075.801 1.907zm0 0"/></symbol><symbol overflow="visible" id="ah"><path d="M.45 2.805c.355-.774.609-1.368.76-1.778.145-.414.282-.882.411-1.422.121-.535.215-1.046.277-1.535a12.688 12.688 0 0 0-.238-4.422C1.434-7.273 1.027-8.39.437-9.707H1.68c.652.934 1.16 1.922 1.527 2.969.36 1.047.543 2.11.543 3.183 0 .91-.145 1.883-.43 2.918-.328 1.16-.863 2.305-1.61 3.442zm0 0"/></symbol><symbol overflow="visible" id="ai"><path d="M4.89-2.46H3.23c-.007-.24-.007-.384-.007-.438 0-.536.086-.977.265-1.325.176-.347.535-.738 1.07-1.172.532-.433.848-.718.958-.855.156-.21.238-.445.238-.703 0-.356-.145-.66-.426-.914-.289-.254-.672-.383-1.148-.383-.47 0-.856.133-1.164.398-.317.266-.532.672-.645 1.211l-1.68-.207c.047-.777.375-1.437.993-1.98.609-.54 1.418-.809 2.418-.813 1.046.004 1.878.278 2.503.825.618.55.93 1.187.934 1.914-.004.406-.117.789-.344 1.148-.226.36-.715.852-1.46 1.469-.387.328-.626.586-.72.777-.093.2-.136.547-.124 1.047zM3.23 0v-1.828H5.06V0zm0 0"/></symbol><symbol overflow="visible" id="aj"><path d="M2.86 0L.07-6.914h1.922l1.301 3.527.379 1.18c.098-.297.16-.496.187-.594.059-.195.125-.39.196-.586L5.37-6.914h1.883L4.504 0zm0 0"/></symbol><symbol overflow="visible" id="ak"><path d="M.89 0v-9.543h1.833v5.063l2.14-2.434h2.254L4.754-4.387 7.285 0H5.312L3.575-3.105l-.851.89V0zm0 0"/></symbol><symbol overflow="visible" id="al"><path d="M.09-6.914h1.95l1.651 4.91 1.614-4.91h1.894L4.758-.262 4.324.945a5.71 5.71 0 0 1-.46.922c-.15.211-.317.383-.505.52a2.326 2.326 0 0 1-.695.308c-.277.07-.59.106-.934.11-.355-.004-.699-.04-1.035-.11l-.16-1.433c.281.054.54.086.774.086.421 0 .738-.125.941-.375.203-.25.36-.57.473-.953zm0 0"/></symbol><symbol overflow="visible" id="am"><path d="M.918-7.852v-1.691h1.828v1.691zm1.828.938v6.7c-.004.878-.062 1.495-.172 1.862-.117.36-.336.645-.664.852-.328.2-.746.3-1.254.305a4.63 4.63 0 0 1-.59-.051 6.912 6.912 0 0 1-.68-.145l.321-1.562c.086.016.168.031.246.043.074.008.145.012.211.015a.862.862 0 0 0 .457-.12.601.601 0 0 0 .238-.29C.895.582.914.246.918-.32v-6.594zm0 0"/></symbol><symbol overflow="visible" id="an"><path d="M.906-6.914H2.61v1.016A2.56 2.56 0 0 1 4.766-7.07c.796.004 1.48.32 2.043.945.558.633.836 1.508.84 2.629C7.644-2.34 7.362-1.441 6.8-.805c-.567.64-1.25.957-2.047.961a2.415 2.415 0 0 1-1.04-.226c-.312-.153-.64-.41-.98-.782v3.48H.906zm1.809 3.34c-.004.777.152 1.351.46 1.722.31.372.684.559 1.13.555.422.004.773-.168 1.058-.508.282-.34.426-.898.426-1.68 0-.722-.148-1.261-.437-1.613-.297-.351-.657-.527-1.082-.527-.45 0-.82.176-1.114.52-.297.347-.445.855-.441 1.53zm0 0"/></symbol><symbol overflow="visible" id="ao"><path d="M2.324 0L.047-9.543H2.02l1.437 6.555 1.746-6.555h2.29l1.675 6.664 1.465-6.664h1.937L10.254 0H8.21L6.309-7.137 4.414 0zm0 0"/></symbol><symbol overflow="visible" id="ap"><path d="M.957-9.543h1.926v5.168c0 .824.023 1.355.074 1.594.078.394.273.707.586.941.309.238.734.36 1.273.356.547.004.957-.11 1.239-.336.273-.223.441-.496.5-.825.054-.32.082-.863.086-1.62v-5.278h1.925v5.012c0 1.148-.054 1.957-.156 2.43-.11.472-.3.87-.578 1.195-.281.328-.656.59-1.121.781-.473.195-1.082.29-1.836.29-.914 0-1.605-.106-2.074-.317-.469-.211-.84-.485-1.114-.82a2.611 2.611 0 0 1-.542-1.06c-.13-.542-.192-1.35-.188-2.421zm0 0"/></symbol><symbol overflow="visible" id="aq"><path d="M.945-6.152L.598-7.93v-1.613H2.59v1.613l-.297 1.778zm0 0"/></symbol><symbol overflow="visible" id="ar"><path d="M.79.457l2.089.254c.031.238.113.406.238.5.172.129.446.195.82.195.477 0 .833-.074 1.075-.215a.98.98 0 0 0 .367-.46c.055-.157.082-.434.082-.84v-1.012C4.914-.371 4.223 0 3.39 0c-.93 0-1.664-.39-2.207-1.18C.758-1.797.543-2.57.547-3.496c-.004-1.156.277-2.043.836-2.656.554-.61 1.246-.914 2.082-.918.851.004 1.558.379 2.113 1.125v-.97h1.715V-.71c-.004.82-.07 1.426-.203 1.832-.137.399-.328.715-.567.95-.246.226-.57.406-.972.538-.41.125-.922.192-1.54.196-1.175-.004-2.007-.203-2.495-.602C1.023 1.801.777 1.29.78.676A1.46 1.46 0 0 1 .79.457zm1.632-4.059c-.004.739.14 1.278.426 1.614.28.343.629.511 1.05.511A1.45 1.45 0 0 0 5.031-2c.309-.348.465-.867.465-1.555 0-.715-.148-1.246-.445-1.593a1.414 1.414 0 0 0-1.117-.524c-.446 0-.805.172-1.086.512-.285.344-.43.863-.426 1.558zm0 0"/></symbol><symbol overflow="visible" id="as"><path d="M.957 0v-9.543h1.828V0zm0 0"/></symbol><symbol overflow="visible" id="at"><path d="M9.578 0H7.48l-.832-2.168H2.832L2.043 0H0l3.719-9.543h2.035zm-3.55-3.777l-1.313-3.54-1.29 3.54zm0 0"/></symbol><symbol overflow="visible" id="au"><path d="M.91-9.52h1.832v1.31c0 .534-.047.952-.137 1.257a1.85 1.85 0 0 1-.52.82 2.622 2.622 0 0 1-.964.574l-.36-.757c.368-.118.63-.282.79-.5.152-.211.234-.504.246-.872H.91zm0 0"/></symbol></defs><path d="M0 0h1378.36v313.672H0zm0 0" fill="#fff"/><path d="M135 128.54c92.04-17.056 92.04-68.231 184.078-68.231" fill="none" stroke-width="1.7" stroke="gray" stroke-miterlimit="10"/><path d="M319.078 60.309c46.656.195 46.656.77 93.313.77M412.39 61.078H567.3" fill="none" stroke-width="1.7" stroke="#a0a0a4" stroke-miterlimit="10"/><path d="M135 128.54c92.5-.134 92.5-.54 185-.54" fill="none" stroke-width="1.7" stroke="gray" stroke-miterlimit="10"/><path d="M320 128c70.93.195 70.93.781 141.86.781M461.86 128.781c70.93 36.223 95.68 144.89 191.359 144.89M653.219 273.672c53.957-.195 53.957-.774 107.91-.774M761.129 272.898h127.25M461.86 128.781c70.93-.027 77.19-.101 154.378-.101M616.238 128.68c77.192-14.48 82.348-57.918 164.692-57.918M780.93 70.762h78.808M859.738 70.762h78.063M937.8 70.762C976.829 63.07 1007.177 40 1076.55 40M937.8 70.762h144.25M616.238 128.68c77.192-2.059 82.348-8.23 164.692-8.23M780.93 120.45c38.25.19 38.25.769 76.5.769M857.43 121.219h129.91M616.238 128.68c77.192 10.867 89.25 43.46 178.5 43.46M794.738 172.14c45.59-.19 45.59-.769 91.184-.769M885.922 171.371c45.59.191 49.168.77 98.34.77M984.262 172.14c49.168-7.956 129.297-31.831 258.597-31.831M984.262 172.14h265.097M616.238 128.68c77.192 25.02 89.25 100.082 178.5 100.082M794.738 228.762c142.88 4.304 198.649 4.304 167.313 0M962.05 228.762h120" fill="none" stroke-width="1.7" stroke="#a0a0a4" stroke-miterlimit="10"/><path d="M541.328 215.117h40v24h-40zm0 0" fill="#fff"/><use xlink:href="#a" x="551.328" y="230.117"/><use xlink:href="#b" x="559.328" y="230.117"/><use xlink:href="#c" x="565.328" y="230.117"/><path d="M535.164 116.719h40v24h-40zm0 0" fill="#fff"/><use xlink:href="#d" x="548.664" y="131.719"/><use xlink:href="#e" x="555.664" y="131.719"/><path d="M990.406 34.348h40v24h-40zm0 0" fill="#fff"/><use xlink:href="#d" x="1003.906" y="49.348"/><use xlink:href="#e" x="1010.906" y="49.348"/><path d="M994.105 57.219h34.5v24h-34.5zm0 0" fill="#fff"/><use xlink:href="#a" x="1001.355" y="73.219"/><use xlink:href="#b" x="1009.355" y="73.219"/><use xlink:href="#c" x="1015.355" y="73.219"/><path d="M1098.89 135.09h40v24h-40zm0 0" fill="#fff"/><use xlink:href="#d" x="1112.391" y="150.09"/><use xlink:href="#e" x="1119.391" y="150.09"/><path d="M1103.684 160.14h34.5v24h-34.5zm0 0" fill="#fff"/><use xlink:href="#a" x="1110.934" y="176.141"/><use xlink:href="#b" x="1118.934" y="176.141"/><use xlink:href="#c" x="1124.934" y="176.141"/><path d="M31 115.54h208v26H31zm0 0" fill="#fff"/><use xlink:href="#f" x="34.5" y="135.539"/><use xlink:href="#g" x="47.5" y="135.539"/><use xlink:href="#h" x="59.5" y="135.539"/><use xlink:href="#i" x="70.5" y="135.539"/><use xlink:href="#f" x="76.5" y="135.539"/><use xlink:href="#g" x="89.5" y="135.539"/><use xlink:href="#j" x="101.5" y="135.539"/><use xlink:href="#k" x="106.5" y="135.539"/><use xlink:href="#i" x="117.5" y="135.539"/><use xlink:href="#j" x="123.5" y="135.539"/><use xlink:href="#l" x="128.5" y="135.539"/><use xlink:href="#i" x="140.5" y="135.539"/><use xlink:href="#m" x="146.5" y="135.539"/><use xlink:href="#n" x="153.5" y="135.539"/><use xlink:href="#l" x="165.5" y="135.539"/><use xlink:href="#o" x="177.5" y="135.539"/><use xlink:href="#p" x="188.5" y="135.539"/><use xlink:href="#j" x="195.5" y="135.539"/><use xlink:href="#q" x="200.5" y="135.539"/><use xlink:href="#l" x="212.5" y="135.539"/><use xlink:href="#k" x="224.5" y="135.539"/><path d="M258.578 49.809h121v21h-121zm0 0" fill="#fff"/><path d="M368.578 44.809c0-1.102.899-2 2-2h4c1.106 0 2 .898 2 2v4c0 1.105-.894 2-2 2h-4c-1.101 0-2-.895-2-2zm0 0" fill="#f0f040" stroke="#a6860b" stroke-miterlimit="10"/><use xlink:href="#r" x="262.578" y="65.809"/><use xlink:href="#s" x="273.578" y="65.809"/><use xlink:href="#s" x="279.578" y="65.809"/><use xlink:href="#t" x="285.578" y="65.809"/><use xlink:href="#u" x="295.578" y="65.809"/><use xlink:href="#v" x="308.578" y="65.809"/><use xlink:href="#w" x="312.578" y="65.809"/><use xlink:href="#x" x="317.578" y="65.809"/><use xlink:href="#y" x="327.578" y="65.809"/><use xlink:href="#z" x="337.578" y="65.809"/><use xlink:href="#A" x="346.578" y="65.809"/><use xlink:href="#B" x="351.578" y="65.809"/><use xlink:href="#t" x="355.578" y="65.809"/><use xlink:href="#y" x="365.578" y="65.809"/><path d="M390.059 52.078h44.668v18h-44.668zm0 0" fill="#fff"/><g fill="#00f"><use xlink:href="#C" x="394.059" y="66.078"/><use xlink:href="#D" x="398.059" y="66.078"/><use xlink:href="#E" x="406.059" y="66.078"/><use xlink:href="#F" x="410.059" y="66.078"/><use xlink:href="#G" x="416.059" y="66.078"/><use xlink:href="#H" x="420.059" y="66.078"/></g><path d="M444.8 44.078h245v34h-245zm0 0" fill="#fff"/><g fill="green"><use xlink:href="#I" x="448.801" y="58.078"/><use xlink:href="#J" x="456.801" y="58.078"/><use xlink:href="#K" x="464.801" y="58.078"/><use xlink:href="#L" x="472.801" y="58.078"/><use xlink:href="#M" x="476.801" y="58.078"/><use xlink:href="#N" x="480.801" y="58.078"/><use xlink:href="#N" x="492.801" y="58.078"/><use xlink:href="#K" x="504.801" y="58.078"/><use xlink:href="#O" x="512.801" y="58.078"/><use xlink:href="#M" x="520.801" y="58.078"/><use xlink:href="#P" x="524.801" y="58.078"/><use xlink:href="#Q" x="532.801" y="58.078"/><use xlink:href="#K" x="536.801" y="58.078"/><use xlink:href="#L" x="544.801" y="58.078"/></g><use xlink:href="#R" x="548.801" y="58.078" fill="green"/><g fill="green"><use xlink:href="#S" x="555.801" y="58.078"/><use xlink:href="#T" x="563.801" y="58.078"/><use xlink:href="#Q" x="571.801" y="58.078"/><use xlink:href="#K" x="575.801" y="58.078"/><use xlink:href="#U" x="583.801" y="58.078"/><use xlink:href="#Q" x="591.801" y="58.078"/><use xlink:href="#L" x="595.801" y="58.078"/><use xlink:href="#K" x="599.801" y="58.078"/><use xlink:href="#U" x="607.801" y="58.078"/><use xlink:href="#M" x="615.801" y="58.078"/><use xlink:href="#V" x="619.801" y="58.078"/><use xlink:href="#Q" x="625.801" y="58.078"/><use xlink:href="#K" x="629.801" y="58.078"/><use xlink:href="#O" x="637.801" y="58.078"/><use xlink:href="#L" x="645.801" y="58.078"/><use xlink:href="#P" x="649.801" y="58.078"/><use xlink:href="#Q" x="657.801" y="58.078"/><use xlink:href="#L" x="661.801" y="58.078"/><use xlink:href="#Q" x="665.801" y="58.078"/><use xlink:href="#J" x="669.801" y="58.078"/><use xlink:href="#K" x="677.801" y="58.078"/></g><g fill="green"><use xlink:href="#N" x="461.801" y="74.078"/><use xlink:href="#S" x="473.801" y="74.078"/><use xlink:href="#N" x="481.801" y="74.078"/><use xlink:href="#K" x="493.801" y="74.078"/><use xlink:href="#T" x="501.801" y="74.078"/><use xlink:href="#Q" x="509.801" y="74.078"/><use xlink:href="#L" x="513.801" y="74.078"/><use xlink:href="#Q" x="517.801" y="74.078"/><use xlink:href="#J" x="521.801" y="74.078"/><use xlink:href="#K" x="529.801" y="74.078"/><use xlink:href="#L" x="537.801" y="74.078"/><use xlink:href="#W" x="541.801" y="74.078"/><use xlink:href="#X" x="545.801" y="74.078"/><use xlink:href="#T" x="553.801" y="74.078"/><use xlink:href="#Y" x="561.801" y="74.078"/><use xlink:href="#Q" x="568.801" y="74.078"/><use xlink:href="#M" x="572.801" y="74.078"/><use xlink:href="#S" x="576.801" y="74.078"/><use xlink:href="#T" x="584.801" y="74.078"/><use xlink:href="#L" x="592.801" y="74.078"/><use xlink:href="#Z" x="596.801" y="74.078"/><use xlink:href="#P" x="607.801" y="74.078"/><use xlink:href="#V" x="615.801" y="74.078"/><use xlink:href="#L" x="621.801" y="74.078"/><use xlink:href="#Y" x="625.801" y="74.078"/><use xlink:href="#aa" x="632.801" y="74.078"/><use xlink:href="#K" x="637.801" y="74.078"/><use xlink:href="#P" x="645.801" y="74.078"/><use xlink:href="#Q" x="653.801" y="74.078"/><use xlink:href="#K" x="657.801" y="74.078"/><use xlink:href="#O" x="665.801" y="74.078"/></g><path d="M255.5 117.5h129v21h-129zm0 0" fill="#fff"/><use xlink:href="#ab" x="259" y="133.5"/><use xlink:href="#t" x="271" y="133.5"/><use xlink:href="#s" x="281" y="133.5"/><use xlink:href="#ac" x="287" y="133.5"/><use xlink:href="#ad" x="301" y="133.5"/><use xlink:href="#ae" x="310" y="133.5"/><use xlink:href="#v" x="314" y="133.5"/><use xlink:href="#w" x="318" y="133.5"/><use xlink:href="#x" x="323" y="133.5"/><use xlink:href="#y" x="333" y="133.5"/><use xlink:href="#z" x="343" y="133.5"/><use xlink:href="#A" x="352" y="133.5"/><use xlink:href="#B" x="357" y="133.5"/><use xlink:href="#t" x="361" y="133.5"/><use xlink:href="#y" x="371" y="133.5"/><path d="M398.86 119.781h126v18h-126zm0 0" fill="#fff"/><g fill="red"><use xlink:href="#af" x="402.359" y="133.781"/><use xlink:href="#S" x="410.359" y="133.781"/><use xlink:href="#X" x="418.359" y="133.781"/><use xlink:href="#T" x="426.359" y="133.781"/><use xlink:href="#O" x="434.359" y="133.781"/><use xlink:href="#L" x="442.359" y="133.781"/><use xlink:href="#Z" x="446.359" y="133.781"/><use xlink:href="#M" x="457.359" y="133.781"/><use xlink:href="#Q" x="461.359" y="133.781"/><use xlink:href="#J" x="465.359" y="133.781"/><use xlink:href="#L" x="473.359" y="133.781"/><use xlink:href="#af" x="477.359" y="133.781"/><use xlink:href="#M" x="485.359" y="133.781"/><use xlink:href="#T" x="489.359" y="133.781"/><use xlink:href="#O" x="497.359" y="133.781"/><use xlink:href="#ag" x="505.359" y="133.781"/><use xlink:href="#ah" x="509.359" y="133.781"/><use xlink:href="#ai" x="513.359" y="133.781"/></g><path d="M585.219 264.672h136v18h-136zm0 0" fill="#fff"/><path d="M710.219 259.672c0-1.106.898-2 2-2h4c1.105 0 2 .894 2 2v4c0 1.101-.895 2-2 2h-4c-1.102 0-2-.899-2-2zm0 0" fill="#f0f040" stroke="#a6860b" stroke-miterlimit="10"/><g><use xlink:href="#L" x="589.719" y="278.672"/><use xlink:href="#M" x="593.719" y="278.672"/><use xlink:href="#T" x="597.719" y="278.672"/><use xlink:href="#aj" x="605.719" y="278.672"/><use xlink:href="#S" x="612.719" y="278.672"/><use xlink:href="#ak" x="620.719" y="278.672"/><use xlink:href="#K" x="627.719" y="278.672"/><use xlink:href="#O" x="635.719" y="278.672"/><use xlink:href="#L" x="643.719" y="278.672"/><use xlink:href="#M" x="647.719" y="278.672"/><use xlink:href="#T" x="651.719" y="278.672"/><use xlink:href="#L" x="659.719" y="278.672"/><use xlink:href="#P" x="663.719" y="278.672"/><use xlink:href="#T" x="671.719" y="278.672"/><use xlink:href="#al" x="679.719" y="278.672"/><use xlink:href="#L" x="686.719" y="278.672"/><use xlink:href="#Z" x="690.719" y="278.672"/><use xlink:href="#P" x="701.719" y="278.672"/><use xlink:href="#al" x="709.719" y="278.672"/></g><path d="M738.797 263.898h44.668v18h-44.668zm0 0" fill="#fff"/><g fill="#00f"><use xlink:href="#C" x="742.797" y="277.898"/><use xlink:href="#D" x="746.797" y="277.898"/><use xlink:href="#E" x="754.797" y="277.898"/><use xlink:href="#F" x="758.797" y="277.898"/><use xlink:href="#G" x="764.797" y="277.898"/><use xlink:href="#H" x="768.797" y="277.898"/></g><path d="M798.879 263.898h179v18h-179zm0 0" fill="#fff"/><g fill="green"><use xlink:href="#I" x="802.879" y="277.898"/><use xlink:href="#J" x="810.879" y="277.898"/><use xlink:href="#K" x="818.879" y="277.898"/><use xlink:href="#L" x="826.879" y="277.898"/><use xlink:href="#S" x="830.879" y="277.898"/><use xlink:href="#af" x="838.879" y="277.898"/><use xlink:href="#am" x="846.879" y="277.898"/><use xlink:href="#K" x="850.879" y="277.898"/><use xlink:href="#Y" x="858.879" y="277.898"/><use xlink:href="#Q" x="865.879" y="277.898"/><use xlink:href="#L" x="869.879" y="277.898"/><use xlink:href="#an" x="873.879" y="277.898"/><use xlink:href="#P" x="881.879" y="277.898"/><use xlink:href="#V" x="889.879" y="277.898"/><use xlink:href="#V" x="895.879" y="277.898"/><use xlink:href="#K" x="901.879" y="277.898"/><use xlink:href="#O" x="909.879" y="277.898"/><use xlink:href="#L" x="917.879" y="277.898"/><use xlink:href="#Q" x="921.879" y="277.898"/><use xlink:href="#S" x="925.879" y="277.898"/><use xlink:href="#L" x="933.879" y="277.898"/><use xlink:href="#af" x="937.879" y="277.898"/><use xlink:href="#M" x="945.879" y="277.898"/><use xlink:href="#T" x="949.879" y="277.898"/><use xlink:href="#O" x="957.879" y="277.898"/><use xlink:href="#ag" x="965.879" y="277.898"/><use xlink:href="#ah" x="969.879" y="277.898"/></g><path d="M587.738 119.68h57v18h-57zm0 0" fill="#fff"/><g><use xlink:href="#M" x="591.238" y="133.68"/><use xlink:href="#T" x="595.238" y="133.68"/><use xlink:href="#aj" x="603.238" y="133.68"/><use xlink:href="#S" x="610.238" y="133.68"/><use xlink:href="#ak" x="618.238" y="133.68"/><use xlink:href="#K" x="625.238" y="133.68"/><use xlink:href="#O" x="633.238" y="133.68"/></g><path d="M736.93 61.762h88v18h-88zm0 0" fill="#fff"/><path d="M813.93 56.762c0-1.106.894-2 2-2h4c1.105 0 2 .894 2 2v4c0 1.101-.895 2-2 2h-4c-1.106 0-2-.899-2-2zm0 0" fill="#f0f040" stroke="#a6860b" stroke-miterlimit="10"/><g><use xlink:href="#P" x="740.43" y="75.762"/><use xlink:href="#V" x="748.43" y="75.762"/><use xlink:href="#L" x="754.43" y="75.762"/><use xlink:href="#P" x="758.43" y="75.762"/><use xlink:href="#L" x="766.43" y="75.762"/><use xlink:href="#W" x="770.43" y="75.762"/><use xlink:href="#X" x="774.43" y="75.762"/><use xlink:href="#T" x="782.43" y="75.762"/><use xlink:href="#Y" x="790.43" y="75.762"/><use xlink:href="#Q" x="797.43" y="75.762"/><use xlink:href="#M" x="801.43" y="75.762"/><use xlink:href="#S" x="805.43" y="75.762"/><use xlink:href="#T" x="813.43" y="75.762"/></g><path d="M837.406 61.762h44.668v18h-44.668zm0 0" fill="#fff"/><path d="M871.074 56.762c0-1.106.895-2 2-2h4c1.106 0 2 .894 2 2v4c0 1.101-.894 2-2 2h-4c-1.105 0-2-.899-2-2zm0 0" fill="#f0f040" stroke="#a6860b" stroke-miterlimit="10"/><g fill="#00f"><use xlink:href="#C" x="841.406" y="75.762"/><use xlink:href="#D" x="845.406" y="75.762"/><use xlink:href="#E" x="853.406" y="75.762"/><use xlink:href="#F" x="857.406" y="75.762"/><use xlink:href="#G" x="863.406" y="75.762"/><use xlink:href="#H" x="867.406" y="75.762"/></g><path d="M894.8 61.762h86v18h-86zm0 0" fill="#fff"/><g fill="red"><use xlink:href="#V" x="898.801" y="75.762"/><use xlink:href="#Q" x="904.801" y="75.762"/><use xlink:href="#aa" x="908.801" y="75.762"/><use xlink:href="#M" x="913.801" y="75.762"/><use xlink:href="#Y" x="917.801" y="75.762"/><use xlink:href="#Q" x="924.801" y="75.762"/><use xlink:href="#L" x="928.801" y="75.762"/><use xlink:href="#N" x="932.801" y="75.762"/><use xlink:href="#S" x="944.801" y="75.762"/><use xlink:href="#O" x="952.801" y="75.762"/><use xlink:href="#K" x="960.801" y="75.762"/><use xlink:href="#ai" x="968.801" y="75.762"/></g><path d="M1046.05 31h61v18h-61zm0 0" fill="#fff"/><g fill="green"><use xlink:href="#ao" x="1050.551" y="45"/><use xlink:href="#M" x="1063.551" y="45"/><use xlink:href="#T" x="1067.551" y="45"/><use xlink:href="#O" x="1075.551" y="45"/><use xlink:href="#S" x="1083.551" y="45"/><use xlink:href="#Z" x="1091.551" y="45"/></g><path d="M1046.05 61.762h72v18h-72zm0 0" fill="#fff"/><g fill="green"><use xlink:href="#ap" x="1049.551" y="75.762"/><use xlink:href="#T" x="1058.551" y="75.762"/><use xlink:href="#O" x="1066.551" y="75.762"/><use xlink:href="#K" x="1074.551" y="75.762"/><use xlink:href="#W" x="1082.551" y="75.762"/><use xlink:href="#M" x="1086.551" y="75.762"/><use xlink:href="#T" x="1090.551" y="75.762"/><use xlink:href="#K" x="1098.551" y="75.762"/><use xlink:href="#O" x="1106.551" y="75.762"/></g><path d="M738.43 111.45h85v18h-85zm0 0" fill="#fff"/><path d="M812.43 106.45c0-1.106.894-2 2-2h4c1.105 0 2 .894 2 2v4c0 1.105-.895 2-2 2h-4c-1.106 0-2-.895-2-2zm0 0" fill="#f0f040" stroke="#a6860b" stroke-miterlimit="10"/><g><use xlink:href="#P" x="741.93" y="125.449"/><use xlink:href="#V" x="749.93" y="125.449"/><use xlink:href="#L" x="755.93" y="125.449"/><use xlink:href="#P" x="759.93" y="125.449"/><use xlink:href="#L" x="767.93" y="125.449"/><use xlink:href="#N" x="771.93" y="125.449"/><use xlink:href="#K" x="783.93" y="125.449"/><use xlink:href="#Q" x="791.93" y="125.449"/><use xlink:href="#J" x="795.93" y="125.449"/><use xlink:href="#S" x="803.93" y="125.449"/><use xlink:href="#O" x="811.93" y="125.449"/></g><path d="M835.098 112.219h44.668v18h-44.668zm0 0" fill="#fff"/><path d="M868.762 107.219c0-1.102.898-2 2-2h4c1.105 0 2 .898 2 2v4c0 1.105-.895 2-2 2h-4c-1.102 0-2-.895-2-2zm0 0" fill="#f0f040" stroke="#a6860b" stroke-miterlimit="10"/><g fill="#00f"><use xlink:href="#C" x="839.098" y="126.219"/><use xlink:href="#D" x="843.098" y="126.219"/><use xlink:href="#E" x="851.098" y="126.219"/><use xlink:href="#F" x="855.098" y="126.219"/><use xlink:href="#G" x="861.098" y="126.219"/><use xlink:href="#H" x="865.098" y="126.219"/></g><path d="M893.34 112.219h188v18h-188zm0 0" fill="#fff"/><g fill="green"><use xlink:href="#I" x="897.84" y="126.219"/><use xlink:href="#J" x="905.84" y="126.219"/><use xlink:href="#K" x="913.84" y="126.219"/><use xlink:href="#L" x="921.84" y="126.219"/><use xlink:href="#N" x="925.84" y="126.219"/><use xlink:href="#K" x="937.84" y="126.219"/><use xlink:href="#Q" x="945.84" y="126.219"/><use xlink:href="#J" x="949.84" y="126.219"/><use xlink:href="#S" x="957.84" y="126.219"/><use xlink:href="#O" x="965.84" y="126.219"/><use xlink:href="#aq" x="973.84" y="126.219"/><use xlink:href="#V" x="976.84" y="126.219"/><use xlink:href="#L" x="982.84" y="126.219"/><use xlink:href="#S" x="986.84" y="126.219"/><use xlink:href="#Z" x="994.84" y="126.219"/><use xlink:href="#T" x="1005.84" y="126.219"/><use xlink:href="#M" x="1013.84" y="126.219"/><use xlink:href="#T" x="1017.84" y="126.219"/><use xlink:href="#ar" x="1025.84" y="126.219"/><use xlink:href="#L" x="1033.84" y="126.219"/><use xlink:href="#S" x="1037.84" y="126.219"/><use xlink:href="#af" x="1045.84" y="126.219"/><use xlink:href="#am" x="1053.84" y="126.219"/><use xlink:href="#K" x="1057.84" y="126.219"/><use xlink:href="#Y" x="1065.84" y="126.219"/><use xlink:href="#Q" x="1072.84" y="126.219"/></g><path d="M740.738 163.14h108v18h-108zm0 0" fill="#fff"/><path d="M837.738 158.14c0-1.105.899-2 2-2h4c1.106 0 2 .895 2 2v4c0 1.106-.894 2-2 2h-4c-1.101 0-2-.894-2-2zm0 0" fill="#f0f040" stroke="#a6860b" stroke-miterlimit="10"/><g><use xlink:href="#P" x="744.738" y="177.141"/><use xlink:href="#V" x="752.738" y="177.141"/><use xlink:href="#L" x="758.738" y="177.141"/><use xlink:href="#P" x="762.738" y="177.141"/><use xlink:href="#L" x="770.738" y="177.141"/><use xlink:href="#Y" x="774.738" y="177.141"/><use xlink:href="#S" x="781.738" y="177.141"/><use xlink:href="#T" x="789.738" y="177.141"/><use xlink:href="#V" x="797.738" y="177.141"/><use xlink:href="#Q" x="803.738" y="177.141"/><use xlink:href="#aa" x="807.738" y="177.141"/><use xlink:href="#X" x="812.738" y="177.141"/><use xlink:href="#Y" x="820.738" y="177.141"/><use xlink:href="#Q" x="827.738" y="177.141"/><use xlink:href="#S" x="831.738" y="177.141"/><use xlink:href="#aa" x="839.738" y="177.141"/></g><path d="M863.586 162.371h44.668v18h-44.668zm0 0" fill="#fff"/><path d="M897.254 157.371c0-1.105.894-2 2-2h4c1.105 0 2 .895 2 2v4c0 1.102-.895 2-2 2h-4c-1.106 0-2-.898-2-2zm0 0" fill="#f0f040" stroke="#a6860b" stroke-miterlimit="10"/><g fill="#00f"><use xlink:href="#C" x="867.586" y="176.371"/><use xlink:href="#D" x="871.586" y="176.371"/><use xlink:href="#E" x="879.586" y="176.371"/><use xlink:href="#F" x="883.586" y="176.371"/><use xlink:href="#G" x="889.586" y="176.371"/><use xlink:href="#H" x="893.586" y="176.371"/></g><path d="M918.762 155.14h131v34h-131zm0 0" fill="#fff"/><g fill="red"><use xlink:href="#M" x="948.262" y="169.141"/><use xlink:href="#V" x="952.262" y="169.141"/><use xlink:href="#L" x="958.262" y="169.141"/><use xlink:href="#P" x="962.262" y="169.141"/><use xlink:href="#T" x="970.262" y="169.141"/><use xlink:href="#L" x="978.262" y="169.141"/><use xlink:href="#S" x="982.262" y="169.141"/><use xlink:href="#af" x="990.262" y="169.141"/><use xlink:href="#am" x="998.262" y="169.141"/><use xlink:href="#K" x="1002.262" y="169.141"/><use xlink:href="#Y" x="1010.262" y="169.141"/><use xlink:href="#Q" x="1017.262" y="169.141"/></g><g fill="red"><use xlink:href="#aa" x="922.262" y="185.141"/><use xlink:href="#K" x="927.262" y="185.141"/><use xlink:href="#Q" x="935.262" y="185.141"/><use xlink:href="#X" x="939.262" y="185.141"/><use xlink:href="#aa" x="947.262" y="185.141"/><use xlink:href="#T" x="952.262" y="185.141"/><use xlink:href="#K" x="960.262" y="185.141"/><use xlink:href="#O" x="968.262" y="185.141"/><use xlink:href="#L" x="976.262" y="185.141"/><use xlink:href="#K" x="980.262" y="185.141"/><use xlink:href="#U" x="988.262" y="185.141"/><use xlink:href="#an" x="996.262" y="185.141"/><use xlink:href="#as" x="1004.262" y="185.141"/><use xlink:href="#M" x="1008.262" y="185.141"/><use xlink:href="#Y" x="1012.262" y="185.141"/><use xlink:href="#M" x="1019.262" y="185.141"/><use xlink:href="#Q" x="1023.262" y="185.141"/><use xlink:href="#as" x="1027.262" y="185.141"/><use xlink:href="#al" x="1031.262" y="185.141"/><use xlink:href="#ai" x="1038.262" y="185.141"/></g><path d="M1151.36 131.309h183v18h-183zm0 0" fill="#fff"/><g fill="green"><use xlink:href="#at" x="1155.859" y="145.309"/><use xlink:href="#T" x="1164.859" y="145.309"/><use xlink:href="#L" x="1172.859" y="145.309"/><use xlink:href="#M" x="1176.859" y="145.309"/><use xlink:href="#N" x="1180.859" y="145.309"/><use xlink:href="#an" x="1192.859" y="145.309"/><use xlink:href="#as" x="1200.859" y="145.309"/><use xlink:href="#M" x="1204.859" y="145.309"/><use xlink:href="#Y" x="1208.859" y="145.309"/><use xlink:href="#M" x="1215.859" y="145.309"/><use xlink:href="#Q" x="1219.859" y="145.309"/><use xlink:href="#as" x="1223.859" y="145.309"/><use xlink:href="#al" x="1227.859" y="145.309"/><use xlink:href="#L" x="1234.859" y="145.309"/><use xlink:href="#Y" x="1238.859" y="145.309"/><use xlink:href="#aa" x="1245.859" y="145.309"/><use xlink:href="#K" x="1250.859" y="145.309"/><use xlink:href="#P" x="1258.859" y="145.309"/><use xlink:href="#Q" x="1266.859" y="145.309"/><use xlink:href="#K" x="1270.859" y="145.309"/><use xlink:href="#O" x="1278.859" y="145.309"/><use xlink:href="#L" x="1286.859" y="145.309"/><use xlink:href="#S" x="1290.859" y="145.309"/><use xlink:href="#af" x="1298.859" y="145.309"/><use xlink:href="#am" x="1306.859" y="145.309"/><use xlink:href="#K" x="1310.859" y="145.309"/><use xlink:href="#Y" x="1318.859" y="145.309"/><use xlink:href="#Q" x="1325.859" y="145.309"/></g><path d="M1151.36 163.14h196v18h-196zm0 0" fill="#fff"/><g fill="green"><use xlink:href="#I" x="1155.859" y="177.141"/><use xlink:href="#J" x="1163.859" y="177.141"/><use xlink:href="#K" x="1171.859" y="177.141"/><use xlink:href="#L" x="1179.859" y="177.141"/><use xlink:href="#K" x="1183.859" y="177.141"/><use xlink:href="#U" x="1191.859" y="177.141"/><use xlink:href="#an" x="1199.859" y="177.141"/><use xlink:href="#as" x="1207.859" y="177.141"/><use xlink:href="#M" x="1211.859" y="177.141"/><use xlink:href="#Y" x="1215.859" y="177.141"/><use xlink:href="#M" x="1222.859" y="177.141"/><use xlink:href="#Q" x="1226.859" y="177.141"/><use xlink:href="#as" x="1230.859" y="177.141"/><use xlink:href="#al" x="1234.859" y="177.141"/><use xlink:href="#L" x="1241.859" y="177.141"/><use xlink:href="#aa" x="1245.859" y="177.141"/><use xlink:href="#K" x="1250.859" y="177.141"/><use xlink:href="#Q" x="1258.859" y="177.141"/><use xlink:href="#X" x="1262.859" y="177.141"/><use xlink:href="#aa" x="1270.859" y="177.141"/><use xlink:href="#T" x="1275.859" y="177.141"/><use xlink:href="#K" x="1283.859" y="177.141"/><use xlink:href="#O" x="1291.859" y="177.141"/><use xlink:href="#L" x="1299.859" y="177.141"/><use xlink:href="#S" x="1303.859" y="177.141"/><use xlink:href="#af" x="1311.859" y="177.141"/><use xlink:href="#am" x="1319.859" y="177.141"/><use xlink:href="#K" x="1323.859" y="177.141"/><use xlink:href="#Y" x="1331.859" y="177.141"/><use xlink:href="#Q" x="1338.859" y="177.141"/></g><path d="M668.738 219.762h252v18h-252zm0 0" fill="#fff"/><path d="M909.738 214.762c0-1.106.899-2 2-2h4c1.106 0 2 .894 2 2v4c0 1.101-.894 2-2 2h-4c-1.101 0-2-.899-2-2zm0 0" fill="#f0f040" stroke="#a6860b" stroke-miterlimit="10"/><g><use xlink:href="#aj" x="673.238" y="233.762"/><use xlink:href="#M" x="680.238" y="233.762"/><use xlink:href="#P" x="684.238" y="233.762"/><use xlink:href="#L" x="692.238" y="233.762"/><use xlink:href="#Q" x="696.238" y="233.762"/><use xlink:href="#J" x="700.238" y="233.762"/><use xlink:href="#K" x="708.238" y="233.762"/><use xlink:href="#L" x="716.238" y="233.762"/><use xlink:href="#W" x="720.238" y="233.762"/><use xlink:href="#X" x="724.238" y="233.762"/><use xlink:href="#T" x="732.238" y="233.762"/><use xlink:href="#Y" x="740.238" y="233.762"/><use xlink:href="#Q" x="747.238" y="233.762"/><use xlink:href="#M" x="751.238" y="233.762"/><use xlink:href="#S" x="755.238" y="233.762"/><use xlink:href="#T" x="763.238" y="233.762"/><use xlink:href="#au" x="771.238" y="233.762"/><use xlink:href="#V" x="775.238" y="233.762"/><use xlink:href="#L" x="781.238" y="233.762"/><use xlink:href="#P" x="785.238" y="233.762"/><use xlink:href="#an" x="793.238" y="233.762"/><use xlink:href="#an" x="801.238" y="233.762"/><use xlink:href="#as" x="809.238" y="233.762"/><use xlink:href="#al" x="813.238" y="233.762"/><use xlink:href="#L" x="820.238" y="233.762"/><use xlink:href="#S" x="824.238" y="233.762"/><use xlink:href="#aa" x="832.238" y="233.762"/><use xlink:href="#L" x="837.238" y="233.762"/><use xlink:href="#Y" x="841.238" y="233.762"/><use xlink:href="#P" x="848.238" y="233.762"/><use xlink:href="#as" x="856.238" y="233.762"/><use xlink:href="#as" x="860.238" y="233.762"/><use xlink:href="#L" x="864.238" y="233.762"/><use xlink:href="#N" x="868.238" y="233.762"/><use xlink:href="#K" x="880.238" y="233.762"/><use xlink:href="#Q" x="888.238" y="233.762"/><use xlink:href="#J" x="892.238" y="233.762"/><use xlink:href="#S" x="900.238" y="233.762"/><use xlink:href="#O" x="908.238" y="233.762"/></g><path d="M939.715 219.762h44.668v18h-44.668zm0 0" fill="#fff"/><g fill="#00f"><use xlink:href="#C" x="943.715" y="233.762"/><use xlink:href="#D" x="947.715" y="233.762"/><use xlink:href="#E" x="955.715" y="233.762"/><use xlink:href="#F" x="959.715" y="233.762"/><use xlink:href="#G" x="965.715" y="233.762"/><use xlink:href="#H" x="969.715" y="233.762"/></g><path d="M1006.05 203.762h152v50h-152zm0 0" fill="#fff"/><g fill="green"><use xlink:href="#I" x="1010.551" y="217.762"/><use xlink:href="#J" x="1018.551" y="217.762"/><use xlink:href="#K" x="1026.551" y="217.762"/><use xlink:href="#L" x="1034.551" y="217.762"/><use xlink:href="#S" x="1038.551" y="217.762"/><use xlink:href="#af" x="1046.551" y="217.762"/><use xlink:href="#am" x="1054.551" y="217.762"/><use xlink:href="#K" x="1058.551" y="217.762"/><use xlink:href="#Y" x="1066.551" y="217.762"/><use xlink:href="#Q" x="1073.551" y="217.762"/><use xlink:href="#L" x="1077.551" y="217.762"/><use xlink:href="#V" x="1081.551" y="217.762"/><use xlink:href="#X" x="1087.551" y="217.762"/><use xlink:href="#an" x="1095.551" y="217.762"/><use xlink:href="#an" x="1103.551" y="217.762"/><use xlink:href="#as" x="1111.551" y="217.762"/><use xlink:href="#M" x="1115.551" y="217.762"/><use xlink:href="#K" x="1119.551" y="217.762"/><use xlink:href="#O" x="1127.551" y="217.762"/><use xlink:href="#L" x="1135.551" y="217.762"/><use xlink:href="#P" x="1139.551" y="217.762"/><use xlink:href="#V" x="1147.551" y="217.762"/></g><g fill="green"><use xlink:href="#Q" x="1018.551" y="233.762"/><use xlink:href="#J" x="1022.551" y="233.762"/><use xlink:href="#K" x="1030.551" y="233.762"/><use xlink:href="#L" x="1038.551" y="233.762"/><use xlink:href="#W" x="1042.551" y="233.762"/><use xlink:href="#M" x="1046.551" y="233.762"/><use xlink:href="#aa" x="1050.551" y="233.762"/><use xlink:href="#V" x="1055.551" y="233.762"/><use xlink:href="#Q" x="1061.551" y="233.762"/><use xlink:href="#L" x="1065.551" y="233.762"/><use xlink:href="#P" x="1069.551" y="233.762"/><use xlink:href="#aa" x="1077.551" y="233.762"/><use xlink:href="#ar" x="1082.551" y="233.762"/><use xlink:href="#X" x="1090.551" y="233.762"/><use xlink:href="#N" x="1098.551" y="233.762"/><use xlink:href="#K" x="1110.551" y="233.762"/><use xlink:href="#T" x="1118.551" y="233.762"/><use xlink:href="#Q" x="1126.551" y="233.762"/><use xlink:href="#L" x="1130.551" y="233.762"/><use xlink:href="#Q" x="1134.551" y="233.762"/><use xlink:href="#S" x="1138.551" y="233.762"/></g><g fill="green"><use xlink:href="#P" x="1034.551" y="249.762"/><use xlink:href="#an" x="1042.551" y="249.762"/><use xlink:href="#an" x="1050.551" y="249.762"/><use xlink:href="#as" x="1058.551" y="249.762"/><use xlink:href="#al" x="1062.551" y="249.762"/><use xlink:href="#ag" x="1069.551" y="249.762"/><use xlink:href="#ah" x="1073.551" y="249.762"/><use xlink:href="#L" x="1077.551" y="249.762"/><use xlink:href="#S" x="1081.551" y="249.762"/><use xlink:href="#aa" x="1089.551" y="249.762"/><use xlink:href="#L" x="1094.551" y="249.762"/><use xlink:href="#Y" x="1098.551" y="249.762"/><use xlink:href="#P" x="1105.551" y="249.762"/><use xlink:href="#as" x="1113.551" y="249.762"/><use xlink:href="#as" x="1117.551" y="249.762"/><use xlink:href="#ag" x="1121.551" y="249.762"/><use xlink:href="#ah" x="1125.551" y="249.762"/></g></svg>