<svg xmlns="http://www.w3.org/2000/svg" xmlns:xlink="http://www.w3.org/1999/xlink" width="1212" height="614pt" viewBox="0 0 909 614"><defs><symbol overflow="visible" id="a"><path d="M2.695 0L.165-9.543h1.292L2.91-3.289c.152.66.285 1.309.402 1.953.243-1.016.387-1.601.43-1.762L5.56-9.543h1.523l1.367 4.828c.344 1.2.59 2.324.742 3.38.121-.603.282-1.294.477-2.075l1.496-6.133h1.27L9.816 0H8.602L6.59-7.273a20.404 20.404 0 0 1-.3-1.118c-.103.438-.196.813-.282 1.118L3.984 0zm0 0"/></symbol><symbol overflow="visible" id="b"><path d="M5.39-.852c-.437.372-.855.63-1.253.782a3.811 3.811 0 0 1-1.293.226C2.082.152 1.5-.03 1.094-.398.684-.77.48-1.242.48-1.824c0-.336.075-.645.23-.926.153-.277.356-.504.606-.676.246-.168.528-.297.844-.383.23-.058.578-.117 1.043-.175.942-.11 1.637-.243 2.09-.403 0-.16.004-.261.008-.308-.004-.473-.114-.809-.332-1.008-.301-.262-.746-.395-1.336-.399-.555.004-.965.102-1.223.293-.265.196-.457.536-.582 1.024L.684-4.941c.101-.485.273-.883.511-1.188.239-.3.582-.531 1.035-.695.45-.16.973-.242 1.57-.246.59.004 1.071.074 1.438.21.367.141.637.317.817.524.172.211.293.477.363.797.035.203.055.562.059 1.078v1.563c-.004 1.093.023 1.785.074 2.07.05.289.148.562.297.828H5.625a2.313 2.313 0 0 1-.234-.852zm-.097-2.617c-.43.172-1.066.32-1.914.442-.484.074-.824.152-1.024.234-.199.09-.355.219-.46.383a.95.95 0 0 0-.165.555.969.969 0 0 0 .356.78c.234.212.578.313 1.039.313a2.42 2.42 0 0 0 1.203-.297 1.87 1.87 0 0 0 .777-.808c.122-.262.184-.653.188-1.172zm0 0"/></symbol><symbol overflow="visible" id="c"><path d="M3.438-1.047l.167 1.035a4.897 4.897 0 0 1-.882.102c-.43-.004-.762-.067-.993-.2a1.085 1.085 0 0 1-.496-.53c-.097-.215-.144-.676-.14-1.383v-3.98h-.86v-.911h.86v-1.711l1.164-.703v2.414h1.18v.91h-1.18v4.043c-.004.34.02.555.062.649.04.093.106.171.203.226.09.059.223.086.399.082.129.004.3-.012.515-.043zm0 0"/></symbol><symbol overflow="visible" id="d"><path d="M5.39-2.531l1.153.148c-.129.797-.453 1.418-.969 1.867-.523.446-1.16.668-1.91.672-.95-.004-1.707-.308-2.281-.926C.805-1.387.516-2.273.52-3.43c-.004-.742.12-1.398.37-1.96a2.576 2.576 0 0 1 1.13-1.258 3.418 3.418 0 0 1 1.652-.422c.746.004 1.36.195 1.84.57.476.383.785.922.922 1.617l-1.141.176c-.113-.461-.305-.813-.578-1.047a1.493 1.493 0 0 0-.996-.351c-.594 0-1.074.214-1.442.636-.37.426-.554 1.094-.55 2.004-.004.934.171 1.61.53 2.027.352.422.817.63 1.395.63.457 0 .844-.141 1.153-.422.304-.282.5-.715.586-1.301zm0 0"/></symbol><symbol overflow="visible" id="e"><path d="M.879 0v-9.543H2.05v3.422a2.64 2.64 0 0 1 2.07-.95c.508.005.953.106 1.336.305.375.204.645.48.809.836.16.356.242.871.246 1.547V0H5.34v-4.383c-.004-.586-.13-1.012-.383-1.277-.254-.266-.613-.399-1.078-.402a1.943 1.943 0 0 0-.98.273c-.31.18-.528.426-.653.73-.133.313-.195.739-.195 1.278V0zm0 0"/></symbol><symbol overflow="visible" id="f"><path d="M5.613-2.227l1.211.149c-.195.71-.55 1.262-1.062 1.648-.52.39-1.18.582-1.98.586C2.765.152 1.964-.156 1.374-.777.781-1.398.485-2.273.488-3.398c-.004-1.164.297-2.067.899-2.707.597-.641 1.375-.961 2.332-.965.922.004 1.676.32 2.265.945.582.633.875 1.516.88 2.656-.005.07-.005.176-.009.313H1.7c.043.761.258 1.344.645 1.742.383.406.863.605 1.445.605.426 0 .793-.109 1.098-.336.304-.222.547-.585.726-1.082zM1.766-4.12h3.859C5.57-4.7 5.422-5.137 5.184-5.43a1.818 1.818 0 0 0-1.454-.675c-.542 0-.996.18-1.359.539-.367.359-.57.843-.605 1.445zm0 0"/></symbol><symbol overflow="visible" id="g"><path d="M.867 0v-6.914h1.055v1.047c.266-.485.512-.809.742-.969.227-.152.477-.23.754-.234.39.004.793.129 1.203.379L4.22-5.605a1.711 1.711 0 0 0-.86-.254c-.257 0-.488.078-.691.23a1.225 1.225 0 0 0-.434.64A4.519 4.519 0 0 0 2.04-3.62V0zm0 0"/></symbol><symbol overflow="visible" id="i"><path d="M.598-3.066l1.191-.106c.055.485.188.875.395 1.18.203.304.523.554.96.742.434.191.922.285 1.465.281.48.004.907-.07 1.274-.215.367-.14.64-.336.824-.59.18-.246.27-.519.273-.816a1.291 1.291 0 0 0-.261-.785c-.176-.223-.461-.41-.86-.563-.257-.101-.824-.253-1.699-.464C3.281-4.61 2.664-4.81 2.316-5c-.46-.234-.8-.531-1.02-.887a2.117 2.117 0 0 1-.331-1.191c-.004-.48.133-.93.41-1.348.27-.418.668-.734 1.195-.953a4.66 4.66 0 0 1 1.754-.328c.703.004 1.324.117 1.867.344.54.226.957.562 1.25 1.004.29.445.446.945.47 1.504l-1.212.09c-.07-.598-.289-1.051-.66-1.364-.379-.305-.934-.46-1.664-.465-.766.004-1.324.145-1.672.422-.351.281-.523.617-.523 1.012 0 .344.12.625.37.844.243.222.88.453 1.907.683 1.023.235 1.727.434 2.113.606.551.257.961.586 1.227.976.262.395.394.844.398 1.356a2.65 2.65 0 0 1-.437 1.437c-.29.45-.707.797-1.25 1.047-.547.25-1.16.375-1.84.375-.867 0-1.59-.125-2.172-.379a2.99 2.99 0 0 1-1.375-1.137 3.159 3.159 0 0 1-.523-1.714zm0 0"/></symbol><symbol overflow="visible" id="j"><path d="M.664.574l1.14.168c.048.348.176.606.395.77.29.215.688.32 1.192.324.543-.004.96-.113 1.257-.328.29-.219.489-.52.598-.91.059-.239.09-.739.086-1.504C4.816-.301 4.176 0 3.418 0 2.465 0 1.73-.34 1.211-1.027.687-1.711.426-2.535.43-3.497A4.537 4.537 0 0 1 .785-5.32c.238-.559.582-.989 1.04-1.293.452-.301.988-.453 1.6-.457.813.004 1.485.332 2.016.988v-.832h1.082v5.976C6.52.137 6.41.899 6.195 1.349a2.45 2.45 0 0 1-1.043 1.066c-.476.258-1.058.387-1.754.39-.828-.003-1.496-.19-2-.558C.887 1.871.641 1.316.664.574zm.969-4.156c-.004.914.176 1.574.539 1.988a1.7 1.7 0 0 0 1.355.625c.54.004.989-.203 1.356-.62.36-.415.543-1.067.547-1.954-.004-.844-.192-1.48-.563-1.914-.379-.426-.832-.64-1.36-.645-.523.004-.964.215-1.327.637-.368.426-.551 1.055-.547 1.883zm0 0"/></symbol><symbol overflow="visible" id="k"><path d="M.852 0v-9.543h1.171V0zm0 0"/></symbol><symbol overflow="visible" id="l"><path d="M.41-2.063l1.16-.183c.063.469.242.824.543 1.066.293.25.707.371 1.246.371.536 0 .938-.109 1.2-.328.257-.218.386-.472.39-.77a.735.735 0 0 0-.347-.624c-.165-.102-.563-.235-1.196-.399-.863-.215-1.457-.402-1.789-.562a1.685 1.685 0 0 1-.754-.656 1.679 1.679 0 0 1-.258-.93c-.003-.305.067-.59.211-.856.137-.261.332-.48.579-.656.18-.129.425-.242.742-.34a3.82 3.82 0 0 1 1.015-.14c.54.004 1.012.082 1.426.234.406.16.711.371.91.637.192.265.324.625.403 1.07l-1.145.156c-.055-.355-.207-.632-.453-.832-.254-.199-.606-.3-1.059-.3-.539 0-.925.09-1.152.265-.234.18-.348.387-.344.625a.594.594 0 0 0 .145.41c.09.125.242.23.449.313.117.047.461.148 1.035.3.824.227 1.403.407 1.735.544.324.144.582.351.77.617.187.273.28.605.28 1 0 .394-.117.761-.343 1.105a2.24 2.24 0 0 1-.985.801c-.433.188-.918.277-1.457.281C2.465.152 1.781-.03 1.313-.402.84-.773.538-1.328.41-2.062zm0 0"/></symbol><symbol overflow="visible" id="m"><path d="M2.8 0L.169-6.914h1.238l1.485 4.14c.156.454.304.919.441 1.395.102-.36.246-.8.438-1.316l1.535-4.22h1.207L3.895 0zm0 0"/></symbol><symbol overflow="visible" id="n"><path d="M.879 0v-6.914h1.055v.984c.507-.758 1.238-1.136 2.199-1.14.414.004.797.078 1.148.226.348.149.61.348.785.59.172.246.297.531.368.863.039.22.058.602.062 1.141V0H5.324v-4.207c-.004-.477-.05-.832-.136-1.07a1.17 1.17 0 0 0-.485-.567 1.636 1.636 0 0 0-.816-.21c-.504.003-.934.16-1.293.476-.364.316-.543.918-.543 1.8V0zm0 0"/></symbol><symbol overflow="visible" id="o"><path d="M.441-3.457c-.004-1.281.356-2.227 1.07-2.844.594-.508 1.317-.765 2.173-.77.949.005 1.726.317 2.332.934.601.625.902 1.485.906 2.582-.004.895-.137 1.594-.402 2.102-.27.508-.657.906-1.165 1.187a3.461 3.461 0 0 1-1.671.422c-.97-.004-1.75-.312-2.348-.93C.738-1.393.437-2.288.44-3.456zm1.207 0c-.003.887.192 1.55.579 1.988.382.442.867.66 1.457.66.582 0 1.066-.218 1.453-.664.383-.437.574-1.113.578-2.023-.004-.852-.195-1.5-.582-1.942a1.875 1.875 0 0 0-1.45-.664 1.866 1.866 0 0 0-1.456.66C1.84-5 1.645-4.34 1.648-3.456zm0 0"/></symbol><symbol overflow="visible" id="p"><path d="M.887 0v-9.543h1.172v5.441l2.773-2.812h1.516L3.703-4.348 6.613 0H5.168L2.883-3.535l-.824.793V0zm0 0"/></symbol><symbol overflow="visible" id="q"><path d="M5.41 0v-1.016C4.867-.234 4.137.152 3.215.156a2.836 2.836 0 0 1-1.14-.234c-.356-.152-.622-.352-.79-.59a2.078 2.078 0 0 1-.36-.867C.876-1.765.849-2.13.853-2.63v-4.285h1.171v3.836c-.003.617.024 1.027.075 1.234.07.313.222.555.465.73.234.177.53.266.886.262.348.004.676-.086.989-.27.304-.179.523-.425.656-.737.125-.305.191-.758.191-1.352v-3.703h1.172V0zm0 0"/></symbol><symbol overflow="visible" id="r"><path d="M.887-8.195v-1.348h1.172v1.348zM.887 0v-6.914h1.172V0zm0 0"/></symbol><symbol overflow="visible" id="s"><path d="M.879 2.648v-9.562h1.066v.898c.25-.347.532-.609.852-.789.312-.172.7-.261 1.156-.265a2.788 2.788 0 0 1 1.559.457c.449.304.789.734 1.023 1.285.227.555.344 1.16.348 1.82-.004.707-.133 1.344-.383 1.91-.258.567-.625 1-1.105 1.301-.489.3-.997.45-1.528.453a2.254 2.254 0 0 1-1.05-.246 2.38 2.38 0 0 1-.766-.625v3.363zM1.94-3.418c-.004.895.176 1.55.54 1.973.355.425.792.636 1.308.636.52 0 .965-.218 1.336-.66.371-.437.559-1.12.559-2.047 0-.879-.184-1.535-.543-1.976-.368-.438-.801-.66-1.301-.66-.5 0-.942.234-1.324.699-.387.469-.579 1.148-.575 2.035zm0 0"/></symbol><symbol overflow="visible" id="t"><path d="M.879 0v-6.914h1.047v.969c.215-.336.504-.61.867-.817.355-.203.766-.304 1.23-.308.512.004.93.11 1.258.32.324.21.559.508.696.89.546-.804 1.257-1.206 2.136-1.21.684.004 1.211.195 1.578.57.368.383.551.965.555 1.754V0H9.082v-4.355c0-.465-.039-.805-.113-1.012a1.016 1.016 0 0 0-.414-.496 1.352 1.352 0 0 0-.703-.192c-.489.004-.895.164-1.211.485-.325.324-.485.843-.48 1.554V0H4.987v-4.492c-.004-.52-.097-.91-.289-1.172-.191-.258-.504-.387-.937-.39a1.76 1.76 0 0 0-.914.261c-.282.176-.485.43-.61.762-.125.336-.187.816-.187 1.445V0zm0 0"/></symbol><symbol overflow="visible" id="u"><path d="M5.363 0v-.871C4.922-.188 4.277.152 3.43.156a2.75 2.75 0 0 1-1.52-.453c-.46-.3-.82-.726-1.074-1.273C.582-2.117.457-2.742.457-3.45c0-.687.113-1.312.344-1.878.226-.559.57-.992 1.035-1.293a2.809 2.809 0 0 1 1.543-.45c.414.005.785.094 1.113.266.324.18.59.407.793.684v-3.422h1.168V0zM1.66-3.45c-.004.888.184 1.548.559 1.985.37.438.812.656 1.324.656.508 0 .941-.207 1.3-.625.356-.418.536-1.058.54-1.918-.004-.945-.188-1.64-.547-2.086-.367-.44-.816-.66-1.348-.664-.523.004-.957.215-1.304.641-.352.426-.528 1.098-.524 2.012zm0 0"/></symbol><symbol overflow="visible" id="v"><path d="M3.117 2.805c-.648-.817-1.195-1.77-1.64-2.864a8.93 8.93 0 0 1-.668-3.398c0-1.031.164-2.02.5-2.969.386-1.097.992-2.191 1.808-3.281h.84c-.527.906-.871 1.55-1.039 1.934a10.358 10.358 0 0 0-.625 1.875 10.477 10.477 0 0 0-.281 2.449c-.004 2.09.644 4.172 1.945 6.254zm0 0"/></symbol><symbol overflow="visible" id="w"><path d="M1.648 2.805h-.84C2.106.723 2.755-1.36 2.755-3.45c0-.817-.094-1.625-.281-2.43a10.647 10.647 0 0 0-.618-1.875C1.684-8.14 1.335-8.793.81-9.707h.84c.812 1.09 1.417 2.184 1.808 3.281.332.95.496 1.938.5 2.969a8.939 8.939 0 0 1-.676 3.398c-.449 1.094-.996 2.047-1.633 2.864zm0 0"/></symbol><symbol overflow="visible" id="x"><path d="M1.055 0v-9.543h6.902v1.125h-5.64v2.922h5.28v1.121h-5.28v3.25h5.859V0zm0 0"/></symbol><symbol overflow="visible" id="y"><path d="M1.16 0v-6.004H.125v-.91H1.16v-.734c0-.461.04-.809.121-1.036a1.49 1.49 0 0 1 .598-.738c.281-.187.68-.281 1.195-.285a6.58 6.58 0 0 1 1.094.117l-.176 1.024a4.572 4.572 0 0 0-.691-.067c-.36.004-.61.078-.758.23-.148.153-.223.438-.219.852v.637h1.348v.91H2.324V0zm0 0"/></symbol><symbol overflow="visible" id="z"><path d="M.383-2.707l1.14-.156c.032.73.168 1.23.41 1.496.243.273.579.406 1.008.402.317.004.59-.066.82-.215.231-.14.387-.34.477-.593.082-.247.125-.645.13-1.196v-6.574h1.265v6.504c-.004.8-.102 1.418-.293 1.855-.195.438-.5.774-.918 1.004-.418.23-.91.344-1.473.344-.844 0-1.484-.238-1.926-.723-.445-.476-.66-1.195-.64-2.148zm0 0"/></symbol><symbol overflow="visible" id="A"><path d="M1.96 0H.872v-9.543h1.172v3.402c.492-.617 1.125-.925 1.894-.93.426.005.829.09 1.208.258.378.176.69.418.937.723.246.313.438.688.578 1.125.137.442.207.906.207 1.402 0 1.188-.293 2.106-.879 2.75-.586.645-1.289.965-2.11.97C3.063.151 2.423-.189 1.962-.868zm-.015-3.508c0 .832.114 1.43.34 1.797.367.602.863.902 1.496.902.508 0 .953-.218 1.328-.664.375-.441.563-1.105.563-1.992 0-.898-.18-1.566-.54-1.996-.359-.43-.792-.644-1.296-.644-.516 0-.961.222-1.332.668-.375.445-.559 1.09-.559 1.93zm0 0"/></symbol><symbol overflow="visible" id="B"><path d="M.871-8.184v-1.359h1.172v1.36zM-.613 2.684l.222-.997c.239.06.422.086.555.09.234-.004.41-.082.531-.238C.81 1.38.867.984.871.352v-7.266h1.172V.379c-.004.848-.113 1.441-.332 1.777-.281.43-.75.645-1.406.649a3.819 3.819 0 0 1-.918-.121zm0 0"/></symbol><symbol overflow="visible" id="C"><path d="M.828 2.664L.695 1.562c.254.067.477.102.672.106.258-.004.469-.047.625-.133.156-.086.281-.207.383-.363.07-.117.191-.41.36-.871.019-.07.054-.164.105-.29L.215-6.913h1.262L2.918-2.91c.184.512.348 1.047.5 1.601.133-.535.293-1.062.48-1.574l1.48-4.031h1.173L3.918.117c-.285.758-.504 1.281-.656 1.57-.211.383-.45.665-.719.848-.27.176-.59.266-.961.27a2.588 2.588 0 0 1-.754-.14zm0 0"/></symbol><symbol overflow="visible" id="D"><path d="M1.184 0v-1.336H2.52V0c0 .488-.09.883-.262 1.188-.176.3-.45.535-.824.699l-.329-.5c.247-.114.43-.274.547-.48.118-.212.18-.512.196-.907zm0 0"/></symbol><symbol overflow="visible" id="E"><path d="M.977 0v-9.543h1.261v8.418h4.703V0zm0 0"/></symbol><symbol overflow="visible" id="Q"><path d="M.988 0v-9.543h1.903l2.257 6.758c.207.633.36 1.101.457 1.41.106-.344.274-.852.508-1.527l2.285-6.641h1.7V0h-1.22v-7.988L6.106 0H4.97L2.207-8.125V0zm0 0"/></symbol><symbol overflow="visible" id="R"><path d="M2.156 0L.04-6.914H1.25l1.102 3.992.41 1.485c.011-.07.133-.547.355-1.426L4.22-6.914h1.203l1.035 4.012.348 1.32.394-1.336 1.188-3.996h1.136L7.363 0H6.145L5.047-4.14l-.27-1.18L3.38 0zm0 0"/></symbol><symbol overflow="visible" id="S"><path d="M1.047 0v-9.543H5.28c.844.004 1.492.09 1.938.258.441.172.793.473 1.062.906.262.438.395.918.399 1.438-.004.68-.223 1.25-.66 1.714-.442.465-1.118.762-2.032.883.336.164.59.32.762.477.367.34.715.765 1.05 1.27L9.46 0H7.872L6.61-1.984a20.922 20.922 0 0 0-.914-1.317c-.238-.3-.453-.515-.64-.636a2.053 2.053 0 0 0-.575-.254 4.524 4.524 0 0 0-.703-.047H2.312V0zm1.266-5.332h2.714c.575 0 1.024-.059 1.352-.18.324-.117.57-.308.742-.57.164-.262.25-.547.254-.86a1.44 1.44 0 0 0-.492-1.109c-.328-.289-.844-.433-1.551-.437h-3.02zm0 0"/></symbol><symbol overflow="visible" id="T"><path d="M.098 0l2.527-3.594-2.34-3.32H1.75l1.063 1.621c.199.313.359.57.48.773.191-.28.367-.535.527-.761l1.168-1.633h1.399L3.997-3.66 6.57 0H5.13L3.71-2.148l-.379-.579L1.516 0zm0 0"/></symbol><symbol overflow="visible" id="F"><path d="M.723-4.656l2.812-.274c.164.946.508 1.637 1.031 2.078.516.446 1.215.668 2.094.664.926.004 1.625-.195 2.102-.59.468-.39.707-.85.71-1.382a1.356 1.356 0 0 0-.3-.863c-.203-.235-.547-.442-1.04-.622-.339-.113-1.112-.324-2.312-.625-1.554-.382-2.64-.855-3.261-1.418-.88-.785-1.317-1.742-1.317-2.878 0-.727.203-1.41.617-2.043.41-.633 1.008-1.118 1.786-1.454.777-.332 1.714-.496 2.82-.5 1.793.004 3.144.399 4.055 1.184.906.793 1.386 1.844 1.433 3.152l-2.89.13c-.13-.735-.395-1.266-.797-1.587-.41-.32-1.02-.48-1.829-.484-.843.004-1.503.176-1.976.52a1.02 1.02 0 0 0-.457.886c-.004.34.14.63.43.871.363.305 1.25.625 2.656.957 1.406.332 2.445.676 3.117 1.028.672.36 1.2.843 1.582 1.457.383.617.574 1.375.574 2.277 0 .824-.23 1.594-.683 2.309A4.107 4.107 0 0 1 9.746-.266C8.91.082 7.875.25 6.633.254 4.82.25 3.43-.164 2.46-1 1.492-1.836.91-3.055.723-4.656zm0 0"/></symbol><symbol overflow="visible" id="G"><path d="M3.484-7.207l-2.488-.45c.277-1 .758-1.741 1.445-2.226.684-.48 1.7-.722 3.047-.722 1.223 0 2.133.148 2.735.437.593.293 1.015.66 1.261 1.102.243.449.364 1.265.368 2.457l-.028 3.203c-.004.914.04 1.586.13 2.015.085.438.25.899.495 1.391H7.734a7.646 7.646 0 0 1-.265-.813l-.094-.32c-.473.461-.973.801-1.504 1.028a4.343 4.343 0 0 1-1.71.34c-1.071 0-1.915-.29-2.528-.868C1.016-1.21.707-1.94.71-2.832a2.881 2.881 0 0 1 .422-1.566 2.755 2.755 0 0 1 1.176-1.055c.503-.242 1.23-.457 2.183-.64 1.278-.239 2.164-.462 2.664-.673v-.273c-.004-.524-.133-.902-.39-1.129-.262-.227-.754-.34-1.473-.34-.492 0-.871.098-1.14.29-.278.195-.5.53-.669 1.011zM7.156-4.98c-.351.117-.906.257-1.668.421-.765.164-1.265.325-1.496.477-.36.254-.535.574-.535.965 0 .387.14.722.43 1 .281.281.648.418 1.093.418.493 0 .965-.16 1.418-.488.329-.243.543-.547.653-.907.066-.234.101-.68.105-1.34zm0 0"/></symbol><symbol overflow="visible" id="H"><path d="M1.18.684l3.136.378c.051.36.172.614.364.754.258.196.668.293 1.226.293.719 0 1.254-.109 1.614-.32.238-.148.421-.379.546-.695.082-.23.125-.649.13-1.258V-1.68C7.37-.559 6.335 0 5.085 0 3.696 0 2.59-.586 1.777-1.766c-.64-.93-.957-2.09-.957-3.476 0-1.738.418-3.067 1.254-3.985.836-.918 1.875-1.378 3.121-1.378 1.278 0 2.336.566 3.172 1.69v-1.456h2.57v9.309c-.003 1.226-.105 2.136-.304 2.742-.203.601-.485 1.078-.848 1.425-.367.344-.855.614-1.46.813-.61.191-1.38.289-2.31.293-1.761-.004-3.007-.305-3.742-.906-.734-.602-1.101-1.368-1.101-2.29 0-.093 0-.202.008-.331zm2.453-6.082c0 1.101.21 1.906.64 2.414.422.515.95.77 1.579.765.668.004 1.234-.258 1.695-.785.46-.52.691-1.297.695-2.328-.004-1.074-.226-1.871-.664-2.395-.445-.52-1.004-.78-1.68-.78-.66 0-1.203.257-1.625.769-.43.511-.64 1.293-.64 2.34zm0 0"/></symbol><symbol overflow="visible" id="J"><path d="M1.414 0v-14.316h4.328L8.34-4.551l2.566-9.765h4.336V0H12.56v-11.27L9.719 0H6.934L4.102-11.27V0zm0 0"/></symbol><symbol overflow="visible" id="K"><path d="M1.438-11.777v-2.54H4.18v2.54zM1.438 0v-10.371H4.18V0zm0 0"/></symbol><symbol overflow="visible" id="L"><path d="M10.945 0H8.398v-1.523C7.973-.93 7.473-.488 6.898-.2a3.855 3.855 0 0 1-1.742.433c-1.195 0-2.218-.48-3.062-1.441C1.242-2.168.82-3.507.82-5.227c0-1.753.41-3.085 1.239-4.003.824-.915 1.87-1.375 3.136-1.375 1.157 0 2.16.484 3.008 1.445v-5.156h2.742zm-7.32-5.41c-.004 1.11.148 1.91.457 2.402.441.719 1.059 1.074 1.856 1.074.625 0 1.164-.265 1.609-.804.441-.535.66-1.34.664-2.41-.004-1.188-.219-2.043-.645-2.57-.433-.524-.98-.79-1.648-.79-.652 0-1.2.262-1.637.778-.441.523-.66 1.296-.656 2.32zm0 0"/></symbol><symbol overflow="visible" id="M"><path d="M1.438 0v-14.316H4.18V0zm0 0"/></symbol><symbol overflow="visible" id="N"><path d="M7.441-3.3l2.735.456c-.356 1.008-.91 1.77-1.664 2.293C7.75-.027 6.8.234 5.664.234 3.86.234 2.524-.352 1.66-1.53.973-2.473.633-3.668.633-5.11c0-1.72.449-3.063 1.347-4.036.899-.972 2.036-1.46 3.41-1.46 1.54 0 2.755.511 3.653 1.53.89 1.02 1.316 2.579 1.277 4.68H3.445c.02.817.239 1.454.664 1.903.422.453.954.676 1.586.676.426 0 .785-.118 1.082-.352.293-.234.516-.61.664-1.133zm.157-2.774c-.02-.793-.223-1.399-.614-1.813a1.89 1.89 0 0 0-1.43-.62c-.6 0-1.097.218-1.484.655-.394.438-.586 1.032-.574 1.778zm0 0"/></symbol><symbol overflow="visible" id="O"><path d="M3.367 0L.086-10.371h2.668l1.941 6.797 1.79-6.797h2.648l1.726 6.797 1.985-6.797h2.703L12.219 0h-2.64L7.792-6.672 6.035 0zm0 0"/></symbol><symbol overflow="visible" id="P"><path d="M4.063 0H1.32v-10.371h2.547v1.473c.438-.692.828-1.149 1.176-1.375a2.182 2.182 0 0 1 1.187-.332c.622 0 1.227.175 1.81.52l-.852 2.39c-.465-.297-.895-.45-1.29-.45-.386 0-.71.11-.976.32-.266.216-.477.595-.629 1.145-.156.555-.234 1.715-.23 3.477zm0 0"/></symbol><symbol overflow="visible" id="aa"><path d="M1.465 0v-14.316h6.082c1.531.004 2.64.132 3.336.386.687.258 1.242.715 1.664 1.371.414.664.625 1.414.625 2.254 0 1.078-.317 1.965-.945 2.664-.633.7-1.579 1.141-2.832 1.32.62.368 1.136.77 1.546 1.204.407.441.957 1.215 1.645 2.324L14.336 0h-3.457l-2.09-3.117c-.742-1.11-1.25-1.809-1.523-2.102a2.268 2.268 0 0 0-.871-.597c-.31-.106-.793-.16-1.454-.16h-.586V0zm2.89-8.262h2.137c1.387 0 2.25-.058 2.598-.175.344-.118.617-.317.812-.606.196-.281.293-.64.293-1.074 0-.48-.129-.867-.386-1.164-.258-.293-.621-.48-1.09-.563-.235-.031-.938-.05-2.11-.05H4.355zm0 0"/></symbol><symbol overflow="visible" id="ab"><path d="M.8-5.332c-.003-.91.22-1.79.673-2.645a4.586 4.586 0 0 1 1.91-1.953c.82-.449 1.742-.675 2.758-.675 1.57 0 2.855.511 3.859 1.53 1 1.02 1.5 2.305 1.504 3.86-.004 1.57-.508 2.871-1.52 3.902C8.973-.28 7.7.234 6.164.234A6.017 6.017 0 0 1 3.441-.41 4.373 4.373 0 0 1 1.473-2.3C1.02-3.13.797-4.14.8-5.333zm2.813.144c-.004 1.036.239 1.825.73 2.368.485.55 1.09.824 1.81.82.714.004 1.312-.27 1.8-.82.48-.543.723-1.34.727-2.383C8.676-6.22 8.434-7 7.953-7.547c-.488-.547-1.086-.82-1.8-.82-.72 0-1.325.273-1.81.82-.491.547-.734 1.336-.73 2.36zm0 0"/></symbol><symbol overflow="visible" id="ac"><path d="M6.191-10.371v2.187H4.316v4.18c-.003.852.012 1.344.051 1.48a.54.54 0 0 0 .246.348.753.753 0 0 0 .465.137c.254 0 .621-.086 1.102-.266l.234 2.13c-.637.273-1.36.41-2.164.41-.5 0-.945-.083-1.34-.25-.402-.165-.695-.38-.875-.645-.187-.262-.316-.617-.387-1.067-.062-.316-.09-.96-.085-1.937v-4.52H.304v-2.187h1.257v-2.059l2.754-1.601v3.66zm0 0"/></symbol><symbol overflow="visible" id="ad"><path d="M3.484 0L.07-14.316h2.957l2.16 9.832 2.618-9.832h3.437l2.508 10 2.195-10h2.914L15.383 0h-3.07L9.46-10.703 6.62 0zm0 0"/></symbol><symbol overflow="visible" id="ae"><path d="M1.336 0v-14.316h2.746v7.597l3.215-3.652h3.375L7.129-6.582 10.929 0H7.97l-2.61-4.656L4.082-3.32V0zm0 0"/></symbol><symbol overflow="visible" id="af"><path d="M10.477-7.305l-2.704.489c-.093-.536-.3-.942-.62-1.22-.325-.269-.743-.405-1.255-.41-.683.005-1.23.239-1.636.708-.41.472-.614 1.261-.61 2.367-.004 1.234.203 2.105.618 2.61.41.511.964.765 1.668.761.515.004.94-.145 1.277-.445.328-.293.566-.805.707-1.532l2.695.461c-.281 1.239-.82 2.176-1.613 2.805-.797.633-1.86.945-3.191.945-1.52 0-2.731-.476-3.633-1.433C1.277-2.156.824-3.48.828-5.176c-.004-1.707.45-3.039 1.36-3.996.902-.953 2.128-1.433 3.671-1.433 1.262 0 2.266.273 3.012.816.746.543 1.281 1.371 1.606 2.484zm0 0"/></symbol><symbol overflow="visible" id="ag"><path d="M4.172-14.316v5.261c.883-1.03 1.937-1.55 3.172-1.55.625 0 1.195.117 1.707.351.504.234.886.535 1.148.899.254.367.43.77.528 1.21.09.446.136 1.133.14 2.06V0H8.125v-5.477c-.004-1.085-.055-1.777-.156-2.07a1.39 1.39 0 0 0-.551-.7c-.266-.171-.598-.26-.992-.26-.457 0-.864.112-1.223.331-.36.227-.621.559-.785 1.004-.164.445-.246 1.106-.246 1.977V0H1.426v-14.316zm0 0"/></symbol><symbol overflow="visible" id="ah"><path d="M8.262 0v-1.555A3.962 3.962 0 0 1 6.773-.242c-.617.32-1.27.476-1.949.476C4.125.234 3.5.082 2.95-.223a2.672 2.672 0 0 1-1.203-1.289c-.25-.554-.375-1.32-.371-2.297v-6.562h2.746v4.766c-.004 1.46.047 2.355.149 2.683.097.332.28.594.554.781.266.196.606.29 1.016.286.465.003.883-.125 1.258-.383.367-.258.62-.575.761-.957.133-.38.204-1.313.207-2.801v-4.375h2.746V0zm0 0"/></symbol><symbol overflow="visible" id="ai"><path d="M.117 0L3.86-5.344.273-10.37h3.352L5.461-7.52l1.93-2.851h3.226l-3.515 4.91L10.937 0H7.57L5.46-3.21 3.329 0zm0 0"/></symbol><symbol overflow="visible" id="aj"><path d="M10.617-5.266l2.801.891c-.43 1.566-1.145 2.727-2.145 3.48-1 .758-2.27 1.133-3.804 1.137C5.566.238 4.004-.406 2.78-1.703 1.555-3 .941-4.777.945-7.031c-.004-2.383.614-4.23 1.848-5.551 1.23-1.316 2.848-1.977 4.855-1.98 1.747.003 3.168.519 4.266 1.554.649.613 1.137 1.492 1.465 2.637l-2.863.684c-.168-.739-.52-1.325-1.059-1.758-.539-.426-1.191-.64-1.957-.645-1.063.004-1.926.383-2.586 1.145-.66.761-.988 1.996-.988 3.699 0 1.812.324 3.101.976 3.867.649.77 1.496 1.152 2.54 1.152.765 0 1.425-.242 1.98-.73.555-.488.953-1.258 1.195-2.309zm0 0"/></symbol><symbol overflow="visible" id="ak"><path d="M1.23-10.371h2.528v1.418c.902-1.102 1.98-1.652 3.234-1.652.66 0 1.238.136 1.727.41.488.273.886.687 1.203 1.242.453-.555.945-.969 1.473-1.242a3.618 3.618 0 0 1 1.69-.41c.759 0 1.403.156 1.935.464.523.309.918.762 1.183 1.36.184.445.277 1.16.281 2.148V0h-2.742v-5.93c-.004-1.023-.097-1.687-.285-1.992-.254-.39-.645-.586-1.172-.586-.387 0-.746.117-1.082.352-.34.234-.586.578-.734 1.031-.153.453-.227 1.168-.227 2.145V0H7.5v-5.684c0-1.007-.05-1.656-.148-1.953-.098-.289-.25-.508-.454-.656-.207-.14-.484-.215-.835-.215-.426 0-.805.117-1.141.344-.34.234-.582.562-.727.988-.148.434-.222 1.145-.218 2.137V0H1.23zm0 0"/></symbol><symbol overflow="visible" id="al"><path d="M1.36-10.371h2.554v1.523c.332-.52.781-.941 1.348-1.27a3.732 3.732 0 0 1 1.886-.487c1.204 0 2.223.472 3.067 1.418.836.945 1.258 2.261 1.262 3.945-.004 1.73-.426 3.074-1.27 4.035C9.359-.247 8.332.234 7.129.234a3.51 3.51 0 0 1-1.559-.34c-.465-.226-.953-.617-1.468-1.175v5.226H1.359zM4.07-5.36c-.004 1.168.227 2.027.696 2.582.46.554 1.023.832 1.687.832.637 0 1.168-.254 1.594-.766.418-.508.629-1.348.633-2.516-.004-1.085-.22-1.89-.653-2.418-.437-.527-.98-.793-1.62-.793-.677 0-1.231.262-1.673.778-.445.523-.668 1.289-.664 2.3zm0 0"/></symbol><symbol overflow="visible" id="am"><path d="M10.867 0H8.125v-5.293c-.004-1.117-.063-1.844-.176-2.172a1.615 1.615 0 0 0-.57-.77 1.66 1.66 0 0 0-.953-.273c-.48 0-.906.133-1.281.39-.38.266-.641.61-.778 1.036-.14.434-.207 1.23-.207 2.387V0H1.414v-10.371h2.55v1.523c.903-1.172 2.044-1.757 3.419-1.757.601 0 1.152.109 1.66.328.5.218.879.496 1.137.832.254.34.433.726.535 1.152.098.434.148 1.047.152 1.848zm0 0"/></symbol><symbol overflow="visible" id="U"><path d="M11.492 0H8.977l-1-2.602H3.398L2.453 0H0l4.46-11.453h2.446zM7.234-4.531l-1.578-4.25-1.547 4.25zm0 0"/></symbol><symbol overflow="visible" id="V"><path d="M8.383-5.844l-2.164.39c-.078-.429-.242-.753-.496-.976-.262-.215-.598-.324-1.004-.328-.551.004-.985.192-1.309.567-.328.378-.492 1.011-.488 1.894-.004.988.16 1.684.496 2.086.328.41.773.613 1.332.61.414.003.754-.118 1.023-.356.262-.234.45-.64.563-1.223l2.156.368C8.266-1.82 7.836-1.07 7.203-.57c-.64.507-1.492.757-2.555.757C3.43.188 2.465-.195 1.746-.96 1.023-1.727.66-2.785.664-4.14.66-5.508 1.024-6.574 1.75-7.34c.723-.762 1.703-1.144 2.938-1.144 1.007 0 1.808.218 2.41.652.593.437 1.023 1.102 1.285 1.988zm0 0"/></symbol><symbol overflow="visible" id="W"><path d="M4.953-8.297v1.75h-1.5v3.344c-.004.68.012 1.074.043 1.183a.465.465 0 0 0 .195.278.559.559 0 0 0 .372.11c.199.003.496-.067.882-.212L5.133-.14c-.512.22-1.09.329-1.735.329-.398 0-.757-.067-1.07-.2-.32-.133-.55-.304-.7-.515-.148-.211-.253-.496-.308-.856-.05-.254-.074-.77-.07-1.547v-3.617H.242v-1.75H1.25v-1.648l2.203-1.282v2.93zm0 0"/></symbol><symbol overflow="visible" id="X"><path d="M1.148-9.422v-2.031h2.196v2.031zm0 9.422v-8.297h2.196V0zm0 0"/></symbol><symbol overflow="visible" id="Y"><path d="M.64-4.266a4.42 4.42 0 0 1 .54-2.117 3.685 3.685 0 0 1 1.527-1.562c.656-.36 1.39-.54 2.207-.54 1.254 0 2.281.41 3.086 1.223.797.82 1.2 1.848 1.203 3.09-.004 1.258-.41 2.3-1.215 3.121C7.176-.223 6.156.187 4.93.187a4.794 4.794 0 0 1-2.176-.515A3.51 3.51 0 0 1 1.18-1.84C.816-2.504.637-3.312.64-4.266zm2.25.118c-.003.824.192 1.457.587 1.89.386.442.87.66 1.445.656.57.004 1.05-.214 1.441-.656.387-.433.578-1.07.582-1.906-.004-.809-.195-1.434-.582-1.875a1.883 1.883 0 0 0-1.441-.656 1.88 1.88 0 0 0-1.445.656c-.395.441-.59 1.07-.586 1.89zm0 0"/></symbol><symbol overflow="visible" id="Z"><path d="M8.695 0H6.5v-4.234c-.004-.895-.05-1.473-.14-1.739a1.302 1.302 0 0 0-.458-.613 1.364 1.364 0 0 0-.761-.219 1.79 1.79 0 0 0-1.024.313c-.304.21-.512.488-.62.828-.114.348-.169.984-.169 1.906V0H1.133v-8.297h2.039v1.219c.719-.938 1.633-1.406 2.734-1.406.485 0 .926.09 1.328.261.399.18.704.403.91.668.204.274.344.578.43.922.078.344.121.836.121 1.477zm0 0"/></symbol></defs><path d="M0 0h908.809v613.84H0zm0 0" fill="#fff"/><path d="M316 558.922h88.5" fill="none" stroke-width="1.7" stroke="#ff8080" stroke-miterlimit="10"/><path d="M362.094 563.922l7-5-7-5zm0 0" fill="none" stroke-width="2" stroke="#ff8080" stroke-miterlimit="10"/><path d="M362.094 563.922l7-5-7-5zm0 0" fill="#ff8080"/><path d="M803.5 54.922v128" fill="none" stroke-width="1.7" stroke="#ff8080" stroke-miterlimit="10"/><path d="M798.5 153.922l5 7 5-7zm0 0" fill="none" stroke-width="2" stroke="#ff8080" stroke-miterlimit="10"/><path d="M798.5 153.922l5 7 5-7zm0 0" fill="#ff8080"/><path d="M387.5 182.922l-158 152" fill="none" stroke-width="2.2" stroke="#80ff00" stroke-dasharray="2.2,2.2" stroke-miterlimit="10"/><path d="M257 301.527l-1.578 8.457 8.512-1.25" fill="none" stroke-width="2" stroke="#80ff00" stroke-miterlimit="10"/><path d="M229.5 558.922v-112" fill="none" stroke-width="2.2" stroke="#80ff00" stroke-dasharray="2.2,2.2" stroke-miterlimit="10"/><path d="M224.5 526.547l5 7 5-7" fill="none" stroke-width="2" stroke="#80ff00" stroke-miterlimit="10"/><path d="M229.5 334.922v112" fill="none" stroke-width="2.2" stroke="#80ff00" stroke-dasharray="2.2,2.2" stroke-miterlimit="10"/><path d="M224.5 414.14l5 7 5-7" fill="none" stroke-width="2" stroke="#80ff00" stroke-miterlimit="10"/><path d="M803.5 54.922v280" fill="none" stroke-width="2.2" stroke="#80ff00" stroke-dasharray="2.2,2.2" stroke-miterlimit="10"/><path d="M798.5 302.64l5 7 5-7" fill="none" stroke-width="2" stroke="#80ff00" stroke-miterlimit="10"/><path d="M387.5 182.922h416" fill="none" stroke-width="2.2" stroke="#80ff00" stroke-dasharray="2.2,2.2" stroke-miterlimit="10"/><path d="M760.758 187.922l7-5-7-5" fill="none" stroke-width="2" stroke="#80ff00" stroke-miterlimit="10"/><path d="M229.5 334.922h574" fill="none" stroke-width="2.2" stroke="#80ff00" stroke-dasharray="2.2,2.2" stroke-miterlimit="10"/><path d="M720.14 339.922l7-5-7-5" fill="none" stroke-width="2" stroke="#80ff00" stroke-miterlimit="10"/><path d="M229.5 558.922H799c3 0 4.5-1.5 4.5-4.5v-219.5" fill="none" stroke-width="2.2" stroke="#80ff00" stroke-dasharray="2.2,2.2" stroke-miterlimit="10"/><path d="M808.5 367.297l-5-7-5 7" fill="none" stroke-width="2" stroke="#80ff00" stroke-miterlimit="10"/><path d="M273 205.254l32.172 48.637" fill="none" stroke-linecap="round" stroke="gray" stroke-miterlimit="10"/><g fill="#37474f"><use xlink:href="#a" x="36.5" y="195.922"/><use xlink:href="#b" x="49.5" y="195.922"/><use xlink:href="#c" x="56.5" y="195.922"/><use xlink:href="#d" x="60.5" y="195.922"/><use xlink:href="#e" x="67.5" y="195.922"/><use xlink:href="#f" x="74.5" y="195.922"/><use xlink:href="#g" x="81.5" y="195.922"/><use xlink:href="#h" x="85.5" y="195.922"/><use xlink:href="#i" x="89.5" y="195.922"/><use xlink:href="#b" x="98.5" y="195.922"/><use xlink:href="#j" x="105.5" y="195.922"/><use xlink:href="#b" x="112.5" y="195.922"/><use xlink:href="#h" x="119.5" y="195.922"/><use xlink:href="#d" x="123.5" y="195.922"/><use xlink:href="#b" x="130.5" y="195.922"/><use xlink:href="#k" x="137.5" y="195.922"/><use xlink:href="#k" x="140.5" y="195.922"/><use xlink:href="#l" x="143.5" y="195.922"/><use xlink:href="#h" x="150.5" y="195.922"/><use xlink:href="#c" x="154.5" y="195.922"/><use xlink:href="#e" x="158.5" y="195.922"/><use xlink:href="#f" x="165.5" y="195.922"/><use xlink:href="#h" x="172.5" y="195.922"/><use xlink:href="#g" x="176.5" y="195.922"/><use xlink:href="#f" x="180.5" y="195.922"/><use xlink:href="#k" x="187.5" y="195.922"/><use xlink:href="#f" x="190.5" y="195.922"/><use xlink:href="#m" x="197.5" y="195.922"/><use xlink:href="#b" x="202.5" y="195.922"/><use xlink:href="#n" x="209.5" y="195.922"/><use xlink:href="#c" x="216.5" y="195.922"/><use xlink:href="#h" x="220.5" y="195.922"/><use xlink:href="#a" x="224.5" y="195.922"/><use xlink:href="#o" x="237.5" y="195.922"/><use xlink:href="#g" x="244.5" y="195.922"/><use xlink:href="#p" x="248.5" y="195.922"/><use xlink:href="#f" x="255.5" y="195.922"/><use xlink:href="#g" x="262.5" y="195.922"/></g><g fill="#37474f"><use xlink:href="#i" x="60.5" y="211.922"/><use xlink:href="#b" x="69.5" y="211.922"/><use xlink:href="#j" x="76.5" y="211.922"/><use xlink:href="#b" x="83.5" y="211.922"/><use xlink:href="#h" x="90.5" y="211.922"/><use xlink:href="#q" x="94.5" y="211.922"/><use xlink:href="#l" x="101.5" y="211.922"/><use xlink:href="#r" x="108.5" y="211.922"/><use xlink:href="#n" x="111.5" y="211.922"/><use xlink:href="#j" x="118.5" y="211.922"/><use xlink:href="#h" x="125.5" y="211.922"/><use xlink:href="#e" x="129.5" y="211.922"/><use xlink:href="#f" x="136.5" y="211.922"/><use xlink:href="#k" x="143.5" y="211.922"/><use xlink:href="#s" x="146.5" y="211.922"/><use xlink:href="#f" x="153.5" y="211.922"/><use xlink:href="#g" x="160.5" y="211.922"/><use xlink:href="#h" x="164.5" y="211.922"/><use xlink:href="#t" x="168.5" y="211.922"/><use xlink:href="#f" x="179.5" y="211.922"/><use xlink:href="#c" x="186.5" y="211.922"/><use xlink:href="#e" x="190.5" y="211.922"/><use xlink:href="#o" x="197.5" y="211.922"/><use xlink:href="#u" x="204.5" y="211.922"/><use xlink:href="#h" x="211.5" y="211.922"/><use xlink:href="#d" x="215.5" y="211.922"/><use xlink:href="#b" x="222.5" y="211.922"/><use xlink:href="#k" x="229.5" y="211.922"/><use xlink:href="#k" x="232.5" y="211.922"/><use xlink:href="#v" x="235.5" y="211.922"/><use xlink:href="#w" x="239.5" y="211.922"/></g><path d="M298.5 390.922h-63.61" fill="none" stroke-linecap="round" stroke="gray" stroke-miterlimit="10"/><g fill="#37474f"><use xlink:href="#a" x="304.5" y="391.922"/><use xlink:href="#o" x="317.5" y="391.922"/><use xlink:href="#g" x="324.5" y="391.922"/><use xlink:href="#p" x="328.5" y="391.922"/><use xlink:href="#f" x="335.5" y="391.922"/><use xlink:href="#g" x="342.5" y="391.922"/><use xlink:href="#h" x="346.5" y="391.922"/><use xlink:href="#i" x="350.5" y="391.922"/><use xlink:href="#b" x="359.5" y="391.922"/><use xlink:href="#j" x="366.5" y="391.922"/><use xlink:href="#b" x="373.5" y="391.922"/><use xlink:href="#h" x="380.5" y="391.922"/><use xlink:href="#f" x="384.5" y="391.922"/><use xlink:href="#t" x="391.5" y="391.922"/><use xlink:href="#r" x="402.5" y="391.922"/><use xlink:href="#c" x="405.5" y="391.922"/><use xlink:href="#l" x="409.5" y="391.922"/><use xlink:href="#h" x="416.5" y="391.922"/><use xlink:href="#x" x="420.5" y="391.922"/><use xlink:href="#y" x="429.5" y="391.922"/><use xlink:href="#y" x="432.5" y="391.922"/><use xlink:href="#f" x="435.5" y="391.922"/><use xlink:href="#d" x="442.5" y="391.922"/><use xlink:href="#c" x="449.5" y="391.922"/><use xlink:href="#l" x="453.5" y="391.922"/><use xlink:href="#h" x="460.5" y="391.922"/><use xlink:href="#v" x="464.5" y="391.922"/><use xlink:href="#s" x="468.5" y="391.922"/><use xlink:href="#k" x="475.5" y="391.922"/><use xlink:href="#b" x="478.5" y="391.922"/><use xlink:href="#r" x="485.5" y="391.922"/><use xlink:href="#n" x="488.5" y="391.922"/><use xlink:href="#h" x="495.5" y="391.922"/><use xlink:href="#z" x="499.5" y="391.922"/><use xlink:href="#i" x="505.5" y="391.922"/><use xlink:href="#h" x="514.5" y="391.922"/><use xlink:href="#o" x="518.5" y="391.922"/><use xlink:href="#A" x="525.5" y="391.922"/><use xlink:href="#B" x="532.5" y="391.922"/><use xlink:href="#f" x="535.5" y="391.922"/><use xlink:href="#d" x="542.5" y="391.922"/><use xlink:href="#c" x="549.5" y="391.922"/><use xlink:href="#l" x="553.5" y="391.922"/><use xlink:href="#w" x="560.5" y="391.922"/></g><path d="M564.832 127.922l27.793 49.844" fill="none" stroke-linecap="round" stroke="gray" stroke-miterlimit="10"/><g fill="#37474f"><use xlink:href="#a" x="485.5" y="105.922"/><use xlink:href="#b" x="498.5" y="105.922"/><use xlink:href="#c" x="505.5" y="105.922"/><use xlink:href="#d" x="509.5" y="105.922"/><use xlink:href="#e" x="516.5" y="105.922"/><use xlink:href="#f" x="523.5" y="105.922"/><use xlink:href="#g" x="530.5" y="105.922"/><use xlink:href="#h" x="534.5" y="105.922"/><use xlink:href="#i" x="538.5" y="105.922"/><use xlink:href="#b" x="547.5" y="105.922"/><use xlink:href="#j" x="554.5" y="105.922"/><use xlink:href="#b" x="561.5" y="105.922"/><use xlink:href="#h" x="568.5" y="105.922"/><use xlink:href="#t" x="572.5" y="105.922"/><use xlink:href="#o" x="583.5" y="105.922"/><use xlink:href="#n" x="590.5" y="105.922"/><use xlink:href="#r" x="597.5" y="105.922"/><use xlink:href="#c" x="600.5" y="105.922"/><use xlink:href="#o" x="604.5" y="105.922"/><use xlink:href="#g" x="611.5" y="105.922"/><use xlink:href="#l" x="615.5" y="105.922"/><use xlink:href="#h" x="622.5" y="105.922"/><use xlink:href="#u" x="626.5" y="105.922"/><use xlink:href="#r" x="633.5" y="105.922"/><use xlink:href="#l" x="636.5" y="105.922"/><use xlink:href="#s" x="643.5" y="105.922"/><use xlink:href="#b" x="650.5" y="105.922"/><use xlink:href="#c" x="657.5" y="105.922"/><use xlink:href="#d" x="661.5" y="105.922"/><use xlink:href="#e" x="668.5" y="105.922"/><use xlink:href="#f" x="675.5" y="105.922"/><use xlink:href="#u" x="682.5" y="105.922"/><use xlink:href="#h" x="689.5" y="105.922"/><use xlink:href="#b" x="693.5" y="105.922"/><use xlink:href="#d" x="700.5" y="105.922"/><use xlink:href="#c" x="707.5" y="105.922"/><use xlink:href="#r" x="711.5" y="105.922"/><use xlink:href="#o" x="714.5" y="105.922"/><use xlink:href="#n" x="721.5" y="105.922"/><use xlink:href="#l" x="728.5" y="105.922"/></g><g fill="#37474f"><use xlink:href="#q" x="479.5" y="121.922"/><use xlink:href="#l" x="486.5" y="121.922"/><use xlink:href="#r" x="493.5" y="121.922"/><use xlink:href="#n" x="496.5" y="121.922"/><use xlink:href="#j" x="503.5" y="121.922"/><use xlink:href="#h" x="510.5" y="121.922"/><use xlink:href="#e" x="514.5" y="121.922"/><use xlink:href="#f" x="521.5" y="121.922"/><use xlink:href="#k" x="528.5" y="121.922"/><use xlink:href="#s" x="531.5" y="121.922"/><use xlink:href="#f" x="538.5" y="121.922"/><use xlink:href="#g" x="545.5" y="121.922"/><use xlink:href="#h" x="549.5" y="121.922"/><use xlink:href="#t" x="553.5" y="121.922"/><use xlink:href="#f" x="564.5" y="121.922"/><use xlink:href="#c" x="571.5" y="121.922"/><use xlink:href="#e" x="575.5" y="121.922"/><use xlink:href="#o" x="582.5" y="121.922"/><use xlink:href="#u" x="589.5" y="121.922"/><use xlink:href="#l" x="596.5" y="121.922"/><use xlink:href="#h" x="603.5" y="121.922"/><use xlink:href="#v" x="607.5" y="121.922"/><use xlink:href="#c" x="611.5" y="121.922"/><use xlink:href="#b" x="615.5" y="121.922"/><use xlink:href="#p" x="622.5" y="121.922"/><use xlink:href="#f" x="629.5" y="121.922"/><use xlink:href="#x" x="636.5" y="121.922"/><use xlink:href="#m" x="645.5" y="121.922"/><use xlink:href="#f" x="650.5" y="121.922"/><use xlink:href="#g" x="657.5" y="121.922"/><use xlink:href="#C" x="661.5" y="121.922"/><use xlink:href="#D" x="668.5" y="121.922"/><use xlink:href="#h" x="672.5" y="121.922"/><use xlink:href="#c" x="676.5" y="121.922"/><use xlink:href="#b" x="680.5" y="121.922"/><use xlink:href="#p" x="687.5" y="121.922"/><use xlink:href="#f" x="694.5" y="121.922"/><use xlink:href="#E" x="701.5" y="121.922"/><use xlink:href="#b" x="708.5" y="121.922"/><use xlink:href="#c" x="715.5" y="121.922"/><use xlink:href="#f" x="719.5" y="121.922"/><use xlink:href="#l" x="726.5" y="121.922"/><use xlink:href="#c" x="733.5" y="121.922"/><use xlink:href="#w" x="737.5" y="121.922"/></g><path d="M143 544.5c0-3.867 3.133-7 7-7h159c3.867 0 7 3.133 7 7v28.84c0 3.867-3.133 7-7 7H150c-3.867 0-7-3.133-7-7zm0 0" fill="#e8eaf6" stroke-width="3" stroke="#ff4f4f" stroke-miterlimit="10"/><g fill="#37474f"><use xlink:href="#F" x="149.5" y="565.922"/><use xlink:href="#G" x="162.5" y="565.922"/><use xlink:href="#H" x="173.5" y="565.922"/><use xlink:href="#G" x="185.5" y="565.922"/><use xlink:href="#I" x="196.5" y="565.922"/><use xlink:href="#J" x="202.5" y="565.922"/><use xlink:href="#K" x="219.5" y="565.922"/><use xlink:href="#L" x="224.5" y="565.922"/><use xlink:href="#L" x="236.5" y="565.922"/><use xlink:href="#M" x="248.5" y="565.922"/><use xlink:href="#N" x="253.5" y="565.922"/><use xlink:href="#O" x="264.5" y="565.922"/><use xlink:href="#G" x="279.5" y="565.922"/><use xlink:href="#P" x="290.5" y="565.922"/><use xlink:href="#N" x="298.5" y="565.922"/></g><path d="M319 491.254l-49.645 37.535" fill="none" stroke-linecap="round" stroke="gray" stroke-miterlimit="10"/><g fill="#37474f"><use xlink:href="#i" x="324.5" y="481.922"/><use xlink:href="#b" x="333.5" y="481.922"/><use xlink:href="#j" x="340.5" y="481.922"/><use xlink:href="#b" x="347.5" y="481.922"/><use xlink:href="#h" x="354.5" y="481.922"/><use xlink:href="#Q" x="358.5" y="481.922"/><use xlink:href="#r" x="369.5" y="481.922"/><use xlink:href="#u" x="372.5" y="481.922"/><use xlink:href="#u" x="379.5" y="481.922"/><use xlink:href="#k" x="386.5" y="481.922"/><use xlink:href="#f" x="389.5" y="481.922"/><use xlink:href="#R" x="396.5" y="481.922"/><use xlink:href="#b" x="405.5" y="481.922"/><use xlink:href="#g" x="412.5" y="481.922"/><use xlink:href="#f" x="416.5" y="481.922"/><use xlink:href="#h" x="423.5" y="481.922"/><use xlink:href="#r" x="427.5" y="481.922"/><use xlink:href="#n" x="430.5" y="481.922"/><use xlink:href="#c" x="437.5" y="481.922"/><use xlink:href="#f" x="441.5" y="481.922"/><use xlink:href="#g" x="448.5" y="481.922"/><use xlink:href="#s" x="452.5" y="481.922"/><use xlink:href="#g" x="459.5" y="481.922"/><use xlink:href="#f" x="463.5" y="481.922"/><use xlink:href="#c" x="470.5" y="481.922"/><use xlink:href="#l" x="474.5" y="481.922"/><use xlink:href="#h" x="481.5" y="481.922"/><use xlink:href="#x" x="485.5" y="481.922"/><use xlink:href="#y" x="494.5" y="481.922"/><use xlink:href="#y" x="497.5" y="481.922"/><use xlink:href="#f" x="500.5" y="481.922"/><use xlink:href="#d" x="507.5" y="481.922"/><use xlink:href="#c" x="514.5" y="481.922"/><use xlink:href="#l" x="518.5" y="481.922"/><use xlink:href="#h" x="525.5" y="481.922"/><use xlink:href="#b" x="529.5" y="481.922"/><use xlink:href="#n" x="536.5" y="481.922"/><use xlink:href="#u" x="543.5" y="481.922"/></g><g fill="#37474f"><use xlink:href="#u" x="330.5" y="497.922"/><use xlink:href="#r" x="337.5" y="497.922"/><use xlink:href="#l" x="340.5" y="497.922"/><use xlink:href="#s" x="347.5" y="497.922"/><use xlink:href="#b" x="354.5" y="497.922"/><use xlink:href="#c" x="361.5" y="497.922"/><use xlink:href="#d" x="365.5" y="497.922"/><use xlink:href="#e" x="372.5" y="497.922"/><use xlink:href="#f" x="379.5" y="497.922"/><use xlink:href="#l" x="386.5" y="497.922"/><use xlink:href="#h" x="393.5" y="497.922"/><use xlink:href="#S" x="397.5" y="497.922"/><use xlink:href="#f" x="406.5" y="497.922"/><use xlink:href="#u" x="413.5" y="497.922"/><use xlink:href="#q" x="420.5" y="497.922"/><use xlink:href="#T" x="427.5" y="497.922"/><use xlink:href="#h" x="434.5" y="497.922"/><use xlink:href="#b" x="438.5" y="497.922"/><use xlink:href="#d" x="445.5" y="497.922"/><use xlink:href="#c" x="452.5" y="497.922"/><use xlink:href="#r" x="456.5" y="497.922"/><use xlink:href="#o" x="459.5" y="497.922"/><use xlink:href="#n" x="466.5" y="497.922"/><use xlink:href="#l" x="473.5" y="497.922"/><use xlink:href="#h" x="480.5" y="497.922"/><use xlink:href="#b" x="484.5" y="497.922"/><use xlink:href="#l" x="491.5" y="497.922"/><use xlink:href="#h" x="498.5" y="497.922"/><use xlink:href="#n" x="502.5" y="497.922"/><use xlink:href="#f" x="509.5" y="497.922"/><use xlink:href="#f" x="516.5" y="497.922"/><use xlink:href="#u" x="523.5" y="497.922"/><use xlink:href="#f" x="530.5" y="497.922"/><use xlink:href="#u" x="537.5" y="497.922"/></g><path d="M373 548.023c0-3.863 3.133-7 7-7h49c3.867 0 7 3.137 7 7v21.793c0 3.864-3.133 7-7 7h-49c-3.867 0-7-3.136-7-7zm0 0" fill="#e8eaf6" stroke-width="3" stroke="#ff8080" stroke-miterlimit="10"/><g fill="#37474f"><use xlink:href="#U" x="380" y="564.422"/><use xlink:href="#V" x="391" y="564.422"/><use xlink:href="#W" x="400" y="564.422"/><use xlink:href="#X" x="405" y="564.422"/><use xlink:href="#Y" x="409" y="564.422"/><use xlink:href="#Z" x="419" y="564.422"/></g><path d="M173.5 432.5c0-3.867 3.133-7 7-7h98c3.867 0 7 3.133 7 7v28.84c0 3.867-3.133 7-7 7h-98c-3.867 0-7-3.133-7-7zm0 0" fill="#e8eaf6" stroke-width="3" stroke="#ff4f4f" stroke-miterlimit="10"/><g fill="#37474f"><use xlink:href="#aa" x="180.5" y="453.922"/><use xlink:href="#ab" x="194.5" y="453.922"/><use xlink:href="#ab" x="206.5" y="453.922"/><use xlink:href="#ac" x="218.5" y="453.922"/><use xlink:href="#I" x="225.5" y="453.922"/><use xlink:href="#F" x="231.5" y="453.922"/><use xlink:href="#G" x="244.5" y="453.922"/><use xlink:href="#H" x="255.5" y="453.922"/><use xlink:href="#G" x="267.5" y="453.922"/></g><path d="M161 320.5c0-3.867 3.133-7 7-7h123c3.867 0 7 3.133 7 7v28.84c0 3.867-3.133 7-7 7H168c-3.867 0-7-3.133-7-7zm0 0" fill="#e8eaf6" stroke-width="3" stroke="#ff4f4f" stroke-miterlimit="10"/><g fill="#37474f"><use xlink:href="#ad" x="168.5" y="341.922"/><use xlink:href="#ab" x="187.5" y="341.922"/><use xlink:href="#P" x="199.5" y="341.922"/><use xlink:href="#ae" x="207.5" y="341.922"/><use xlink:href="#N" x="218.5" y="341.922"/><use xlink:href="#P" x="229.5" y="341.922"/><use xlink:href="#I" x="237.5" y="341.922"/><use xlink:href="#F" x="243.5" y="341.922"/><use xlink:href="#G" x="256.5" y="341.922"/><use xlink:href="#H" x="267.5" y="341.922"/><use xlink:href="#G" x="279.5" y="341.922"/></g><path d="M314 168.5c0-3.867 3.133-7 7-7h133c3.867 0 7 3.133 7 7v28.84c0 3.867-3.133 7-7 7H321c-3.867 0-7-3.133-7-7zm0 0" fill="#e8eaf6" stroke-width="3" stroke="#ff4f4f" stroke-miterlimit="10"/><g fill="#37474f"><use xlink:href="#ad" x="321.5" y="189.922"/><use xlink:href="#G" x="340.5" y="189.922"/><use xlink:href="#ac" x="351.5" y="189.922"/><use xlink:href="#af" x="358.5" y="189.922"/><use xlink:href="#ag" x="369.5" y="189.922"/><use xlink:href="#N" x="381.5" y="189.922"/><use xlink:href="#P" x="392.5" y="189.922"/><use xlink:href="#I" x="400.5" y="189.922"/><use xlink:href="#F" x="406.5" y="189.922"/><use xlink:href="#G" x="419.5" y="189.922"/><use xlink:href="#H" x="430.5" y="189.922"/><use xlink:href="#G" x="442.5" y="189.922"/></g><path d="M731.691 334.922c0-11.832 9.594-21.422 21.422-21.422h100.774c11.828 0 21.422 9.59 21.422 21.422 0 11.828-9.594 21.418-21.422 21.418H753.113c-11.828 0-21.422-9.59-21.422-21.418zm0 0" fill="#e8eaf6" stroke-width="3" stroke="#ff4f4f" stroke-miterlimit="10"/><g fill="#37474f"><use xlink:href="#aa" x="745" y="341.922"/><use xlink:href="#N" x="759" y="341.922"/><use xlink:href="#L" x="770" y="341.922"/><use xlink:href="#ah" x="782" y="341.922"/><use xlink:href="#ai" x="794" y="341.922"/><use xlink:href="#I" x="805" y="341.922"/><use xlink:href="#F" x="811" y="341.922"/><use xlink:href="#ac" x="824" y="341.922"/><use xlink:href="#ab" x="831" y="341.922"/><use xlink:href="#P" x="843" y="341.922"/><use xlink:href="#N" x="851" y="341.922"/></g><path d="M742.5 40.5c0-3.867 3.133-7 7-7h108c3.867 0 7 3.133 7 7v28.84c0 3.867-3.133 7-7 7h-108c-3.867 0-7-3.133-7-7zm0 0" fill="#e8eaf6" stroke-width="3" stroke="#ff4f4f" stroke-miterlimit="10"/><g fill="#37474f"><use xlink:href="#aj" x="749" y="61.922"/><use xlink:href="#ab" x="763" y="61.922"/><use xlink:href="#ak" x="775" y="61.922"/><use xlink:href="#al" x="792" y="61.922"/><use xlink:href="#ab" x="804" y="61.922"/><use xlink:href="#am" x="816" y="61.922"/><use xlink:href="#N" x="828" y="61.922"/><use xlink:href="#am" x="839" y="61.922"/><use xlink:href="#ac" x="851" y="61.922"/></g><path d="M772 172.023c0-3.863 3.133-7 7-7h49c3.867 0 7 3.137 7 7v21.793c0 3.864-3.133 7-7 7h-49c-3.867 0-7-3.136-7-7zm0 0" fill="#e8eaf6" stroke-width="3" stroke="#ff8080" stroke-miterlimit="10"/><g fill="#37474f"><use xlink:href="#U" x="779" y="188.422"/><use xlink:href="#V" x="790" y="188.422"/><use xlink:href="#W" x="799" y="188.422"/><use xlink:href="#X" x="804" y="188.422"/><use xlink:href="#Y" x="808" y="188.422"/><use xlink:href="#Z" x="818" y="188.422"/></g></svg>